<?xml version="1.0" encoding="UTF-8"?>
<!DOCTYPE svg PUBLIC "-//W3C//DTD SVG 1.1//EN" "http://www.w3.org/Graphics/SVG/1.1/DTD/svg11.dtd">
<!-- Creator: CorelDRAW -->
<svg xmlns="http://www.w3.org/2000/svg" xml:space="preserve" width="34.7701in" height="24.7958in" version="1.1" style="shape-rendering:geometricPrecision; text-rendering:geometricPrecision; image-rendering:optimizeQuality; fill-rule:evenodd; clip-rule:evenodd"
viewBox="0 0 22445.26 16006.54"
 xmlns:xlink="http://www.w3.org/1999/xlink"
 xmlns:xodm="http://www.corel.com/coreldraw/odm/2003">
 <defs>
  <style type="text/css">
   <![CDATA[
    .fil37 {fill:lime;fill-rule:nonzero}
    .fil12 {fill:lime;fill-rule:nonzero}
    .fil41 {fill:#0B274F;fill-rule:nonzero}
    .fil22 {fill:#0F2E54;fill-rule:nonzero}
    .fil20 {fill:#103663;fill-rule:nonzero}
    .fil36 {fill:#116101;fill-rule:nonzero}
    .fil7 {fill:#116101;fill-rule:nonzero}
    .fil39 {fill:#163260;fill-rule:nonzero}
    .fil33 {fill:#1D3F70;fill-rule:nonzero}
    .fil24 {fill:#1FB800;fill-rule:nonzero}
    .fil28 {fill:#1FB800;fill-rule:nonzero}
    .fil40 {fill:#234270;fill-rule:nonzero}
    .fil38 {fill:#23659B;fill-rule:nonzero}
    .fil35 {fill:#339911;fill-rule:nonzero}
    .fil11 {fill:#339911;fill-rule:nonzero}
    .fil34 {fill:#395B96;fill-rule:nonzero}
    .fil4 {fill:#3A72AA;fill-rule:nonzero}
    .fil29 {fill:#7640CC;fill-rule:nonzero}
    .fil25 {fill:#9358E0;fill-rule:nonzero}
    .fil16 {fill:#A4FF2E;fill-rule:nonzero}
    .fil43 {fill:#A523A2;fill-rule:nonzero}
    .fil27 {fill:#C16256;fill-rule:nonzero}
    .fil17 {fill:#C3DCFC;fill-rule:nonzero}
    .fil23 {fill:#C92828;fill-rule:nonzero}
    .fil13 {fill:#CE3932;fill-rule:nonzero}
    .fil6 {fill:#CE4ABF;fill-rule:nonzero}
    .fil0 {fill:#CFDDF9;fill-rule:nonzero}
    .fil1 {fill:#D4E8FF;fill-rule:nonzero}
    .fil9 {fill:#D7DEFF;fill-rule:nonzero}
    .fil2 {fill:#DCE6FF;fill-rule:nonzero}
    .fil18 {fill:#DCEDFF;fill-rule:nonzero}
    .fil26 {fill:#E57D61;fill-rule:nonzero}
    .fil30 {fill:#E7EBFF;fill-rule:nonzero}
    .fil21 {fill:#E8C0A6;fill-rule:nonzero}
    .fil10 {fill:#EB5648;fill-rule:nonzero}
    .fil3 {fill:#EEF7FF;fill-rule:nonzero}
    .fil32 {fill:#F1F3FF;fill-rule:nonzero}
    .fil31 {fill:#F39A91;fill-rule:nonzero}
    .fil42 {fill:#F4D4BE;fill-rule:nonzero}
    .fil19 {fill:#F99370;fill-rule:nonzero}
    .fil14 {fill:#F9B233;fill-rule:nonzero}
    .fil44 {fill:#F9F8F3;fill-rule:nonzero}
    .fil5 {fill:#FCB4B4;fill-rule:nonzero}
    .fil15 {fill:#FFC261;fill-rule:nonzero}
    .fil8 {fill:white;fill-rule:nonzero}
   ]]>
  </style>
 </defs>
 <g id="Camada_x0020_1">
  <metadata id="CorelCorpID_0Corel-Layer"/>
  <path class="fil0" d="M16.7 13451.5c0,0 -48.84,583.04 881.39,1008.29 977.1,446.67 5775.65,214.46 4547.62,740.39 -873.39,374.14 510.12,668.84 4009.52,770.87 1799.34,52.36 9645.18,184.42 7804.24,-844.84 -1367.1,-764.42 5323.15,329.58 5163.74,-1674.71l-22406.51 0z"/>
  <path class="fil1" d="M3961.21 13439.94c0,0 -2642.54,-6088.02 -740.88,-7443.64 619.33,-441.47 1177.42,-200.29 1772.92,40.88 626.69,253.82 1294.83,507.73 2119.37,-34.16 1431.69,-940.78 187.84,-3492.61 2158.54,-3902.7 1251.35,-260.37 2375.84,851.92 3445.9,1964.31 1107.63,1151.38 2156.98,2302.77 3228.57,1931.67 2556.4,-885.37 5099.27,912 2901.77,7455.2l-14886.18 -11.57z"/>
  <path class="fil2" d="M10655.03 224.5c-126.33,-61.15 -258.03,-102.93 -391.26,-124.18l19.01 -95.84c144.62,23.13 287.17,68.32 423.81,134.31l-51.55 85.71zm-1185.36 0l-58.46 -81.95c128.48,-73.79 270.14,-121.75 420.85,-142.56l16.5 96.2c-135.65,18.74 -263.15,61.86 -378.89,128.3zm1818.52 500.92c-94.77,-106.6 -192.59,-201.01 -290.76,-280.63l72.71 -72.17c102.57,83.11 204.42,181.47 302.86,292.1l-84.82 60.7zm-2344.01 74.33l-97.28 -43.03c71.28,-129.47 150.27,-243.87 234.81,-340.16l85.26 60.16c-79.98,91 -154.84,199.67 -222.8,323.04zm2809.42 577.48c-71.37,-120.5 -144.26,-233.65 -216.7,-336.21l91.72 -52.09c73.88,104.72 148.11,220.02 220.83,342.67l-95.84 45.63zm-3093.72 151.52l-105.26 -23.58c37.83,-135.92 79.53,-263.86 124,-380.42l102.66 31.47c-43.48,113.95 -84.28,239.3 -121.4,372.53zm3461.05 555.34c-58.28,-125.79 -117.09,-246.11 -174.65,-357.64l98.44 -40.88c58.19,112.7 117.54,234.18 176.45,361.14l-100.24 37.39zm-3624.14 210.7l-107.41 -13.9c21.97,-136.19 46.08,-267.27 71.73,-389.38l106.6 17.93c-25.37,120.86 -49.22,250.5 -70.92,385.35zm3936.41 519.3c-52.45,-131.26 -101.85,-251.22 -151.07,-366.7l101.31 -34.7c49.49,116.11 99.16,236.7 151.88,368.58l-102.12 32.82zm-4035.13 258.3l-108.13 -8.61c13.54,-136.55 28.24,-268.35 43.75,-391.9l107.86 10.85c-15.42,122.74 -30.04,253.82 -43.48,389.65zm9719.86 164.08c-134.31,-50.75 -270.41,-82.22 -404.27,-93.42l10.13 -96.92c144.89,12.19 291.75,45.99 436.36,100.77l-42.23 89.57zm-1183.84 119.24l-62.22 -79.71c133.5,-83.74 268.26,-145.78 400.59,-184.34l33.53 92.62c-122.11,35.5 -247.28,93.24 -371.9,171.42zm-4216.59 199.94c-53.97,-144.8 -98.44,-262.79 -139.95,-371.45l102.57 -31.56c41.69,108.93 86.25,227.19 140.31,372.17l-102.93 30.84zm6088.64 121.22c-104.45,-96.02 -212.67,-180.75 -321.51,-251.85l63.93 -78.63c113.78,74.33 226.56,162.64 335.23,262.52l-77.64 67.96zm-14816.76 157.26c-135.39,-60.43 -268.56,-98.98 -395.81,-114.58l14.73 -96.47c138.97,17.12 283.44,58.82 429.42,123.91l-48.34 87.15zm4345.57 20.35l-108.3 -5.74c9.32,-141.48 18.65,-269.87 28.51,-392.7l108.22 6.99c-9.77,122.38 -19.1,250.41 -28.42,391.44zm7987.23 38.28l-84.37 -61.24c101.76,-112.61 198.23,-209.53 294.79,-296.23l76.75 68.77c-93.87,84.28 -187.83,178.78 -287.17,288.7zm-13503.13 29.77l-65.81 -77.38c129.56,-88.67 264.42,-152.6 400.81,-189.98l31.75 93.06c-124.05,33.98 -247.44,92.62 -366.74,174.29zm16508.46 366.79c-77.73,-113.78 -159.23,-221.36 -242.25,-319.81l86.52 -58.73c85.17,101.04 168.64,211.23 248.26,327.7l-92.53 50.84zm-14655.31 4.12c-110.89,-96.74 -219.93,-182.27 -324.08,-254.18l66.17 -77.11c107.47,74.15 219.71,162.19 333.61,261.62l-75.69 69.66zm8323.43 6.81c-49.76,-130.72 -98.53,-261.53 -139.69,-372.26l102.93 -30.84c41.06,110.64 89.84,241.27 139.51,371.72l-102.75 31.38zm-10733.63 197.97l-91.44 -52.36c85.25,-119.69 173.16,-227.91 261.28,-321.42l82.89 62.76c-85.01,90.29 -170.04,194.92 -252.73,311.02zm13552.73 27.52l-90.55 -53.7c90.64,-123.01 171.78,-229.43 247.9,-325.28l88.4 56.48c-75.4,94.95 -155.83,200.39 -245.75,322.5zm-7526.39 112.79l-108.4 -4.93c7.35,-130 14.61,-260.01 22.32,-392.43l108.31 5.11c-7.71,132.33 -14.97,262.25 -22.24,392.25zm-3037.66 234.9c-98.45,-109.56 -190.09,-207.11 -280.15,-298.2l81.16 -64.55c91.21,92.17 183.94,190.88 283.48,301.7l-84.49 61.06zm14470.88 106.15c-58.28,-121.84 -119.96,-240.19 -183.35,-351.82l96.65 -44.11c64.46,113.51 127.13,233.74 186.4,357.55l-99.7 38.37zm-6425.76 60.7c-49.13,-110.55 -99.97,-231.14 -155.29,-368.67l102.12 -33.08c54.87,136.55 105.26,256.24 153.94,365.72l-100.77 36.04zm2043.03 143.9l-90.64 -53.44c77.11,-105.17 156.81,-216.52 237.41,-329.04l91.27 52.63c-80.87,112.79 -160.58,224.23 -238.04,329.85zm-13479.43 0l-99.26 -39.27c59.56,-120.95 123.03,-239.74 190.48,-355.94l96.21 45.01c-66.37,114.31 -128.81,231.23 -187.43,350.2zm6380.7 239.56l-108.3 -6.27c8.25,-114.05 16.59,-242.16 25.55,-391.71l108.4 5.2c-9.06,150 -17.39,278.39 -25.64,392.79zm-2461.18 72.26c-99.27,-121.67 -182,-221.54 -260.35,-314.25l86.49 -58.82c78.72,93.24 161.79,193.57 261.42,315.68l-87.57 57.38zm14240.92 214.01c-43.75,-126.06 -90.37,-250.14 -138.61,-368.85l101.94 -33.35c48.86,120.14 96.02,245.75 140.22,373.33l-103.55 28.87zm-6336.64 43.13c-70.29,-97.19 -139.86,-211.59 -212.76,-349.76l98.09 -41.6c70.83,134.22 138.07,244.94 205.67,338.37l-91 52.99zm1129.33 66.88l-79.71 -65.99c82.22,-79.98 170.44,-178.51 269.6,-301.34l87.87 57.02c-101.67,126.06 -192.59,227.55 -277.76,310.3zm-13254.34 92.71l-103.76 -28.42c43.11,-126.42 90.4,-252.12 140.57,-373.69l101.75 33.71c-49.45,119.87 -96.07,243.78 -138.57,368.4zm12679.91 209.71c-84.46,0 -167.39,-22.68 -246.38,-67.33l57.83 -82.31c118.71,67.15 235.44,67.33 361.5,13.72l46.71 87.86c-74.59,31.83 -148.47,48.06 -219.66,48.06zm-7943.55 7.98c-88.2,-106.78 -179.67,-219.75 -258.5,-317.21l87.83 -57.11c78.67,97.28 169.96,209.98 257.87,316.4l-87.2 57.92zm1866.74 79.08l-107.59 -12.46c16.68,-116.11 31.56,-243.24 45.63,-388.75l108.13 8.34c-14.26,146.86 -29.32,275.43 -46.17,392.88zm12081.44 253.55c-32.19,-128.48 -66.8,-255.88 -103.02,-378.62l104.9 -24.84c36.58,123.91 71.55,252.48 104,382.21l-105.89 21.25zm-18893.3 204.78l-106.51 -18.56c28.11,-129.91 59.91,-259.38 94.53,-384.9l105.34 23.4c-34.19,123.91 -65.59,251.76 -93.35,380.06zm5493.24 79.79c-86.43,-86.34 -178.8,-185.68 -282.38,-303.76l85.26 -60.16c102.12,116.38 193,214.1 277.86,298.83l-80.74 65.09zm1105.77 236.7l-96.65 -44.29c49.67,-87.24 93.6,-208.27 130.54,-359.7l105.97 20.8c-39.45,161.83 -85.26,287.17 -139.86,383.2zm-376.46 231.5c-150.76,-21.34 -259.81,-82.93 -410.87,-189.18l68.58 -75.4c132.33,92.89 227.92,148.56 353.85,167.84l-11.56 96.74zm12832.05 13.72c-22.5,-129.82 -47.34,-259.2 -73.61,-384.45l106.6 -18.02c26.54,126.24 51.55,256.6 74.24,387.5l-107.23 14.97zm-19179.88 208.72l-107.96 -9.68c14.74,-131.62 32.71,-263.06 53.41,-390.91l107.37 13.99c-20.48,126.42 -38.25,256.51 -52.82,386.6zm19289.45 565.65c-14.52,-130.72 -30.93,-261.26 -48.77,-387.95l107.68 -12.19c17.93,127.58 34.43,258.93 49.04,390.46l-107.95 9.68zm-19341.01 212.22l-108.49 -1.97c3.03,-132.07 8.85,-264.31 17.32,-393.15l108.32 5.74c-8.4,127.58 -14.17,258.57 -17.16,389.38zm19405.83 566.46c-7.44,-130.63 -16.59,-261.8 -27.17,-389.74l108.22 -7.17c10.67,128.66 19.82,260.54 27.35,391.98l-108.4 4.93zm-19501.16 218.13c-7.2,-131.71 -11.97,-263.95 -14.18,-393.06l108.49 -1.52c2.2,128.03 6.93,259.2 14.07,389.83l-108.37 4.75zm19526.9 562.78c-1.26,-130.81 -4.04,-262.25 -8.25,-390.64l108.49 -2.78c4.12,129.02 6.99,261.08 8.25,392.61l-108.49 0.81zm-19456.59 221.18c-16.17,-130.99 -30.26,-262.7 -41.85,-391.44l108.14 -7.89c11.51,127.85 25.49,258.57 41.55,388.58l-107.84 10.76zm19555.93 563.23l-108.49 -2.87c4.21,-130.72 7.17,-262.25 8.7,-390.73l108.49 0.99c-1.52,129.11 -4.48,261.17 -8.69,392.61zm-19435.09 215.45c-24.13,-129.65 -46.47,-260.37 -66.39,-388.58l107.45 -13.36c19.8,127.31 41.99,257.14 65.95,385.97l-107.02 15.96zm19394.48 568.79l-108.31 -6.19c9.24,-130.18 17.3,-261.53 23.94,-390.28l108.4 4.48c-6.72,129.37 -14.79,261.17 -24.03,391.98zm-19228.1 202.98c-31.34,-128.03 -61.16,-257.59 -88.63,-384.9l106.53 -18.47c27.29,126.51 56.93,255.26 88.07,382.57l-105.97 20.8zm19159.07 579.46l-108.04 -9.14c13.72,-130.27 26.45,-261.35 37.75,-389.47l108.22 7.62c-11.39,128.66 -24.21,260.19 -37.92,391zm-18950.45 184.07c-37.98,-125.79 -74.81,-253.82 -109.47,-380.69l105.38 -23.13c34.45,126.06 71.06,253.37 108.81,378.36l-104.72 25.46zm18855.32 596.13l-107.68 -11.92c17.93,-129.83 34.88,-260.46 50.48,-388.49l107.86 10.58c-15.6,128.48 -32.72,259.56 -50.66,389.83zm-18605.1 157.35c-44.36,-121.85 -88.25,-248.17 -130.45,-375.4l104 -27.7c41.92,126.33 85.53,251.85 129.6,372.98l-103.15 30.12z"/>
  <path class="fil3" d="M21251.74 10401.89c-900.34,-133.5 -818.84,1872.23 -2102.29,1872.23 -1173.44,0 -1801.31,-4481.08 -3088.97,-3569.72 -5176.74,3664.04 -1148.96,-2570.93 -4629.83,-2692.77 -1573.94,-55.14 -2622.75,1623.16 -3009.53,4594.68 -330.3,1582.63 -917.3,589.23 -1617.5,-404.09 -488.29,-692.78 -1031.64,-1385.48 -1581.37,-1204.55 -850.39,279.73 -753,3276.45 -1926.43,3276.45 -1283.42,0 -1198.87,-1686.55 -2099.24,-1553.14 -969.4,143.72 -1196.58,2758.67 -1196.58,2758.67l22445.26 0c0,0 -224.05,-2934.04 -1193.52,-3077.76z"/>
  <path class="fil2" d="M20388.97 12506.96c-828.26,-56.93 -693.14,457.88 -1873.84,457.88 -1079.48,0 -1049.89,-1153.89 -1772.26,-1399.11 -1330.34,-451.6 -2427.12,1834.04 -2942.83,686.96 -979.6,-3043.78 -3836.72,-4570.21 -5154.77,0 -515.71,1147.08 -1721.86,-899.71 -2942.84,-686.96 -751.56,130.99 -692.74,1399.11 -1772.27,1399.11 -1180.71,0 -1045.54,-514.81 -1873.87,-457.88 -891.82,61.41 -1158.2,972.69 -1158.2,972.69l20649.16 0c0,0 -266.46,-911.28 -1158.29,-972.69z"/>
  <path class="fil4" d="M5527.32 7662.58c-609.01,-687.85 -1083.51,-1396.24 -1449.25,-2049.12 95.37,55.95 528.57,79.62 535.92,-13.36 6.94,-104.36 -517.71,-143.36 -582.84,-71.28 -24.49,-44.56 -48.51,-88.76 -71.99,-132.78 93.62,50.03 555.43,8.88 549.73,-88.94 -9.23,-104.18 -533.37,-62.04 -586.77,19.19 -29.29,-55.68 -57.77,-110.82 -85.45,-165.42 98.27,45.55 545.89,3.5 539.7,-92.26 -10.25,-102.48 -514.88,-62.85 -579.59,12.82 -27.28,-54.78 -53.97,-109.11 -79.67,-162.55 85.27,51.28 576.59,-69.04 554.07,-169.45 -25.12,-102.39 -546.69,26.27 -579.06,116.82 -24.58,-51.82 -48.59,-103.11 -71.69,-153.58 96.31,39.36 558.57,-76.66 537.17,-174.11 -26.53,-99.16 -515.38,19.72 -568.85,104.18 -27.35,-60.7 -53.65,-120.32 -78.89,-178.78 98.2,37.12 554.63,-78.27 533.3,-174.92 -26.52,-98.27 -506.73,17.75 -565.12,100.59 -19.14,-45.1 -37.48,-89.39 -55.36,-132.96 98.04,28.33 546.28,-166.94 508.33,-260.81 -42.32,-91.54 -488.77,98.89 -537.34,189.45 -25.03,-62.31 -48.29,-121.22 -71.26,-181.38 102.01,21.97 536.6,-169.09 499.3,-261.35 -41.27,-89.66 -472.58,92.17 -529.87,180.75 -17.23,-45.91 -33.89,-91.18 -49.98,-135.74 95.72,21.79 515.13,-279.19 455.69,-364.37 -60.09,-79.35 -447.11,194.83 -480.98,293.72 -19.47,-54.96 -38.05,-108.75 -55.8,-161.38 97.13,18.47 511.79,-279.46 452.88,-364.46 -59.29,-78.54 -440.17,189.99 -478.17,288.79 -18.68,-56.58 -36.34,-111.62 -53.05,-164.88 107.94,-13.09 466.63,-279.55 411.93,-357.82 -48.52,-72.26 -383.2,149.46 -446.65,244.86 -15.8,-52.36 -30.62,-102.93 -44.48,-151.43 102.02,-13.9 439.04,-360.34 368.98,-432.51 -61.05,-63.12 -355.21,215.72 -400.26,320.7 -12.13,-44.38 -23.37,-86.7 -33.82,-127.04 97.22,3.67 439.48,-393.33 360.9,-462.18 -69.55,-59.98 -355.08,255.97 -385.9,363.38 -15.21,-61.51 -28.2,-116.92 -39.17,-165.69 99.74,-11.03 425.29,-390.82 349.04,-459.14 -63.23,-58.73 -334.39,231.94 -374.84,339.62 -9.07,-44.11 -15.38,-77.38 -19.31,-98.98 54.52,-88.49 13.98,-564.12 -85.72,-558.57 -46.39,3.59 -73.37,141.12 -60.25,306.99 11.17,195.99 70.02,226.56 91.91,371.45 -68.59,-92.97 -401.5,-299.19 -445.91,-226.75 -59.14,87.06 383.68,388.13 473.27,352.71 10.28,45.37 22.23,96.11 35.96,151.79 -80.41,-79.44 -469.73,-222.44 -501.82,-138.7 -37.19,96.83 440.51,288.88 528.85,245.57 12.32,47.52 25.78,97.82 40.41,150.89 -87.71,-71.73 -485.76,-179.41 -510.11,-93.6 -27.66,98.53 450.07,245.12 540.46,201.19 14.01,48.68 28.96,99.34 44.86,151.7 -91.79,-65 -504.62,-138.88 -522.07,-50.03 -18.4,100.24 465.51,202.27 553.66,152.42 15.23,48.42 31.26,98.36 48.09,149.46 -93.85,-57.29 -531.71,-82.04 -539.48,11.74 -5.33,101.85 489.66,140.4 569.74,78.9 15.73,46.53 32.1,93.96 49.16,142.29 -92.71,-50.83 -557.05,-9.77 -551.4,88.4 10.3,102.3 512.76,63.03 578.61,-12.1 18.11,50.3 36.9,101.49 56.47,153.49 -88.65,-54.33 -563.85,-13.81 -558.32,85.8 9.61,103.64 527.12,62.31 584.42,-17.04 21.58,56.57 43.4,111.89 66.73,170.17 -93.61,-50.03 -555.46,-8.87 -549.76,89.03 10.19,102.66 516.64,62.76 580.34,-13.45 16.74,41.06 34.01,82.66 51.86,125.07 -102.51,-31.65 -544.57,82.13 -523.28,176.72 26.25,96.56 492.12,-14.52 558.38,-94.32 21.89,50.84 44.39,102.48 67.88,155.11 -98.87,-36.4 -553.17,78.72 -531.86,175.1 26.52,98.36 507.3,-17.84 565.36,-100.86 24.2,53.35 49.27,107.41 75.11,162.19 -92.09,-44.2 -566.24,73.52 -544.5,172.23 26.09,100.77 529.65,-22.68 573.94,-110.01 24.06,50.3 48.95,101.22 74.41,152.69 -99.95,-28.87 -547.17,136.19 -515.42,230.78 36.9,94.77 500.73,-71.64 550.57,-160.13 27.68,55.05 56.37,110.82 85.68,166.94 -89.17,-43.3 -567.55,129.92 -534.16,227.64 36.41,98.26 533.61,-82.58 561.5,-175.37 31.08,58.91 63.21,118.44 96.1,178.33 -96.23,-27.26 -540.13,208.1 -493.99,299.72 49.99,89.93 496.04,-145.51 526.54,-240.55 370.82,667.32 854.88,1394 1479.29,2099.24l56.97 -50.48z"/>
  <path class="fil5" d="M5729.48 7158.98c-663.45,-207.29 -1247.81,-480.56 -1740.03,-760.38 83.69,-1.08 373.47,-155.2 341.89,-218.23 -36.33,-70.38 -391.37,109.56 -405.37,181.74 -33.28,-19.27 -66.14,-38.55 -98.54,-57.83 80.19,-4.21 363.19,-211.5 321.23,-272.65 -46.72,-63.84 -369.69,168.47 -372.53,241.89 -40.74,-24.57 -80.75,-49.13 -120.03,-73.7 81.48,-8.88 354.92,-211.23 313.5,-270.77 -46.73,-62.4 -358.05,160.67 -370.38,234.99 -39.09,-24.84 -77.62,-49.58 -115.18,-74.15 75.31,-0.18 346.46,-270.23 292.59,-326.44 -56.3,-56.48 -343.81,230.78 -329.34,302.15 -36.19,-23.94 -71.79,-47.79 -106.5,-71.46 77.78,-12.19 331.79,-268.07 279.83,-322.86 -56,-53.88 -326.11,214.37 -327.7,289.95 -41.46,-28.6 -81.81,-56.93 -121.03,-85 78.13,-14.34 328.62,-267.54 277.02,-321.78 -55.6,-53.26 -321.27,209.62 -326.68,286.19 -30.05,-21.79 -59.23,-43.3 -87.87,-64.55 74.6,-19.9 288.53,-321.78 227.26,-367.69 -63.22,-42.77 -277.88,255.16 -273.94,332.81 -40.55,-30.57 -78.69,-59.53 -117.03,-89.57 74.65,-25.73 281.35,-319.36 221.11,-364.55 -61.77,-41.87 -270.02,244.49 -272.48,324.29 -29.15,-23.04 -57.54,-45.82 -85.4,-68.41 70.51,-23.4 224.36,-382.3 152.57,-414.22 -69.93,-27.79 -213.34,300.98 -196.66,378.27 -34.08,-27.97 -67.17,-55.5 -99.2,-82.58 70.13,-26.09 222.12,-381.13 150.74,-413.14 -69.1,-27.7 -210.78,295.15 -196.76,373.96 -34.22,-29.32 -67.15,-58.01 -98.83,-85.98 287.66,-381.49 81.5,-614.96 -66.66,-59.62 -30.69,-27.7 -60.08,-54.69 -88.03,-80.69 60.64,-48.86 143.44,-404.98 69.84,-424.35 -64.24,-17.04 -145.7,278.57 -133.85,364.1 -25.18,-23.94 -49.04,-46.98 -71.56,-68.95 64.4,-35.68 130.79,-426.68 52.97,-440.49 -68.5,-11.66 -129.88,304.57 -107.82,386.25 -33.87,-33.89 -64,-64.73 -90.15,-91.99 60.28,-46.17 122.59,-419.42 46.47,-433.85 -63.89,-13.27 -125.85,280.99 -109.94,366.52 -23.21,-25.1 -40.22,-44.11 -51.2,-56.48 0.7,-78.63 -211.58,-370.82 -273.98,-328.33 -28.61,20.53 7.67,120.14 81.06,222.44 83.88,122.56 133.96,119.33 204.77,204.6 -80.76,-33.35 -377.04,-36.76 -377.47,27.52 -4.25,79.53 400.35,101.4 444.5,43.4 24.4,25.37 51.96,53.52 82.65,84.28 -83.13,-19.99 -391.25,39.63 -379.29,106.42 13.79,77.29 398.36,14.79 438.57,-47.88 26.61,26 54.89,53.35 85.16,81.95 -84.86,-12.11 -384.77,73.79 -366.99,138.88 20.63,74.69 387.45,-17.21 428.77,-81.05 28.13,26.09 57.61,52.99 88.41,80.78 -84.86,-6.27 -381.2,107.41 -357.75,171.79 27.26,72.08 380.6,-51.11 418.18,-117.9 28.82,25.46 58.76,51.46 89.64,78 -83.18,-0.36 -376.49,154.84 -344.87,218.58 36.41,68.05 372.1,-100.51 399.89,-171.69 28.37,23.94 57.62,48.33 87.58,72.98 -79.92,3.23 -364.72,211.5 -322.65,272.83 46.68,62.31 356.81,-159.77 370.03,-234.1 31.44,25.46 63.51,51.2 96.59,77.38 -78.67,-0.63 -370.6,211.5 -328.05,273.9 46.76,63.39 365.86,-165.87 371.86,-239.66 36.05,28.24 71.86,55.5 109.77,84.19 -80.19,4.21 -363.23,211.5 -321.28,272.65 46.76,62.49 359.17,-161.47 370.63,-235.71 26.89,20.08 54.36,40.25 82.49,60.7 -78.76,19.63 -320.59,266.19 -269.82,319.09 54.79,52.36 313.09,-201.82 324.77,-279.46 34.08,24.48 68.83,49.04 104.62,73.97 -78.24,15.15 -327.47,267.36 -275.98,321.42 55.63,53.35 321.58,-209.98 326.75,-286.45 36.49,25.1 73.89,50.3 112.05,75.67 -76.92,7.44 -338,269.06 -285.29,324.56 56.29,55.05 334.17,-221.9 328.69,-295.78 35.24,23.13 71.3,46.44 107.9,69.76 -76.01,20.44 -301.11,302.23 -243.56,351.1 60.95,46.98 296.27,-242.25 293.95,-319 39.45,24.75 79.85,49.67 120.79,74.59 -74.69,6.81 -316.77,306.09 -256.94,356.3 62.03,49.49 313.3,-262.16 295.1,-333.17 43.14,26 87.24,52 131.98,77.91 -72.99,19.99 -268.46,346.08 -202.73,387.41 67.53,38.64 264.37,-288.25 246.95,-361.77 501.12,287.17 1098.83,568.52 1779.04,781.1l17.18 -54.96z"/>
  <path class="fil5" d="M18946.74 3921.62c88.49,208.01 150.09,395.84 167.75,501.64 50.48,-121.13 99.43,-232.93 146.77,-335.95 -96.29,-67.33 -392.34,-1117.04 -290.31,-1150.76 98.71,-14.61 341.68,877.12 337.2,1050.43 54.51,-114.85 106.6,-217.96 155.83,-310.13 -91.54,-34.25 -176.44,-1203.65 -68.14,-1203.65 45.73,-3.05 101.04,265.21 123.37,599.27 14.35,212.76 11.75,400.77 -3.76,510.15 66.7,-119.87 127.4,-218.85 180.75,-299.73 -85,-47.07 56.03,-1217.28 162.1,-1195.4 95.22,22.41 -16.86,918.72 -85.36,1084.14 160.76,-209.62 192.67,-292.73 490.7,-565.83 578.56,-533.1 693.5,-408.21 112.34,122.47 -281.17,276.86 -396.11,247.28 -572.11,518.13 135.11,-87.15 1076.61,-300.62 1110.95,-203.79 21.07,105.71 -1071.23,340.25 -1161.69,278.65 -55.77,84.64 -119.87,189.36 -190.79,317.75 123.55,-76.48 1128.25,-193.12 1151.56,-90.46 8.7,107.41 -1098.57,220.47 -1184.2,150.35 -51.02,95.04 -105.35,201.73 -162.28,321.42 139.6,-72.8 1108.79,-183.71 1132.55,-83.11 2.15,106.96 -1052.76,214.37 -1166.8,155.91 -50.12,107.95 -102.12,225.58 -155.74,353.97 140.05,-72.71 1108.17,-183.44 1131.84,-82.93 1.26,106.78 -1043.25,213.21 -1162.5,156.99 -43.84,107.14 -88.67,221.27 -134.4,342.76 129.82,-75.13 1121.17,-189.63 1144.75,-87.69 3.14,107.05 -1060.2,215.27 -1169.85,155.02 -41.69,115.48 -88.22,230.78 -138.7,338.01 130.81,-58.01 1147.88,-20.98 1155.06,84.28 -12.19,106.69 -1089.43,52 -1183.3,-25.55 -57.74,117.54 -120.68,228.63 -188.64,332.63 98.89,-63.3 1182.4,64.64 1174.51,171.87 -7.26,107.95 -1165.64,-44.47 -1197.2,-137.63 -87.95,130.72 -184.51,251.22 -292.82,362.67 138.61,-24.12 1118.03,276.68 1097.32,380.42 -36.85,101.14 -1084.05,-237.05 -1141.79,-335.86 -114.94,112.34 -238.4,210.43 -369.21,293.09 144.89,4.84 1045.41,467.3 1007.66,565.56 -54.06,92.97 -1025.05,-422.91 -1065.13,-530.41 -350.38,206.12 -624.91,231.58 -636.66,232.57l-5.74 -66.7c2.69,-0.27 266.73,-25.29 598.91,-218.14 -108.22,-87.69 -517.68,-1031.24 -425.16,-1082.79 101.22,-28.78 489.35,899.53 484.69,1046.84 109.38,-68.77 231.95,-160.67 357.37,-282.87 -105.79,-33.44 -624.2,-1016.81 -529.87,-1068.81 98.98,-40.8 580.26,906.08 566.19,1032.76 97.28,-98.89 195.63,-216.16 290.4,-355.04 -108.04,-24.39 -704.08,-963.73 -614.15,-1023.08 95.66,-46.8 641.5,841.97 645.45,976.19 62.4,-95.39 122.92,-200.39 180.3,-316.04 -98.36,8.52 -721.3,-976.46 -626.53,-1028.64 95.31,-48.95 652.89,859.37 647.42,985.43 48.23,-100.6 94.77,-211.32 136.73,-326.8 -117.36,-58.1 -681.04,-945.98 -595.95,-1010.35 92.08,-42.23 588.87,758.59 628.77,921.95 45.73,-121.85 90.64,-236.43 134.49,-343.93 -102.66,-38.82 -547.18,-1062.17 -448.83,-1106.37 42.14,-18.02 182.72,217.15 313.89,525.12z"/>
  <path class="fil6" d="M7709.51 4111.52c-9.32,-80.06 -781.43,-79.89 -882.52,-32.73 51.96,-88.22 104.46,-197.42 148.03,-328.33 72.14,47.61 905.29,-88.67 894.17,-170.17 -22.77,-77.73 -794.2,59.98 -879.77,124.98 31.54,-103.55 57.21,-219.93 72.79,-349.49 52.02,53.61 896.1,-248.62 862.57,-324.29 -32.19,-75.58 -815.15,216.25 -859.17,293.98 9.68,-91.18 14.48,-188.64 12.75,-292.73 90.24,20.26 843.01,-319.27 813.43,-395.84 -42.32,-68.77 -745.39,260.72 -814.79,346.08 -2.85,-87.59 -11.57,-184.42 -23.64,-278.3 95.02,3.14 781.23,-442.46 741.24,-513.92 -52.27,-60.61 -684.93,362.57 -747.69,459.4 -11.38,-98.53 -20.74,-191.87 -28.31,-280 100.07,-2.96 774.29,-440.85 735.56,-512.66 -51.82,-59.62 -670.03,352.8 -740.62,451.61 -8.35,-105.98 -14.04,-204.15 -17.65,-294.97 97.32,0.27 778.16,-441.83 738.81,-513.47 -51.91,-59.71 -670.74,353.25 -740.98,451.96 -3.08,-101.31 -3.42,-192.76 -1.86,-275.16 82.26,18.02 796.45,-445.96 752.61,-515.71 -52.27,-61.24 -693.35,368.04 -751.36,463.53 3.38,-111.98 10.37,-205.58 18.78,-282.6 82.61,10.58 744.15,-530.95 692.51,-595.15 -57.74,-53.35 -622.04,419.6 -684.14,526.47 24.95,-245.13 113.7,-265.92 208.08,-552.02 209.75,-563.5 88.1,-608.69 -119.15,-44.02 -107.37,290.13 -99.79,356.84 -136.05,556.06 -10.94,-135.74 -248.22,-785.58 -320.56,-766.93 -79.67,22.23 232.93,866.99 307.23,869.32 -8.08,73.7 -14.79,162.1 -18.3,266.91 -28.05,-124.8 -398.19,-744.25 -468.7,-712.51 -73.48,37.93 392.33,803.15 466.66,794.55 -1.27,79.89 -0.7,168.2 2.32,265.3 -56.96,-118.89 -534.53,-641.41 -596.05,-596.4 -57.22,58.91 509.77,668.31 599.23,681.04 3.78,86.52 9.48,179.59 17.47,279.55 -59.05,-105.62 -628.51,-583.85 -686,-529.87 -50.97,64.73 607.7,604.56 691.5,595.51 7.72,88.4 17.21,182.01 28.68,280.81 -83.5,-96.83 -702.24,-468.55 -749.46,-407.23 -34.78,73.79 657.21,479.85 758,478.77 11.78,93.24 18.78,184.7 21.14,269.96 -39.72,-87.24 -737.15,-510.78 -784.26,-443.9 -46.04,68.59 721.08,520.55 785.12,480.56 1.41,98.71 -3.1,191.15 -12.2,277.85 -48.89,-89.57 -731.6,-503.96 -779.72,-438.34 -40,71.99 692.39,501.99 774.79,481.1 -15.97,127.49 -41.87,241.63 -73.48,342.85 -34.06,-90.64 -693.03,-567.17 -745.54,-504.5 -45.56,68.59 649.45,555.52 733.49,541.62 -42.67,126.87 -93.87,232.21 -144.28,317.12 -47.58,-101.22 -636.88,-597.92 -695.05,-542.43 -44.37,67.78 562.39,565.29 667.16,587.61 -158.38,246.92 -328.95,356.12 -331.03,357.47l27.18 43.39c7.68,-4.75 185.44,-117.9 351.64,-380.42 64.21,59.08 905.62,70.83 909.39,-11.3z"/>
  <path class="fil7" d="M4676.65 13657.71c-450.37,0 -815.47,-365.18 -815.47,-815.53l0 -8565.97c0,-450.35 365.1,-815.53 815.47,-815.53l12504.99 0c450.35,0 815.53,365.18 815.53,815.53l0 8565.97c0,450.35 -365.18,815.53 -815.53,815.53l-12504.99 0z"/>
  <polygon class="fil8" points="4598.8,12959.1 17259.44,12959.1 17259.44,4159.29 4598.8,4159.29 "/>
  <polygon class="fil9" points="5106.78,12451.1 16751.59,12451.1 16751.59,4667.27 5106.78,4667.27 "/>
  <polygon class="fil8" points="17104.18,8742.06 17104.18,8538.9 14137.15,8538.9 11969.59,10101.09 6637.45,10101.09 6617.32,6746.82 8354.06,8483.49 8641.41,8196.14 7004.52,6559.26 16867.67,6559.26 16867.67,6356.09 6818.77,6356.09 6818.77,4503.23 6412.39,4503.23 6412.39,6356.09 6411.79,6356.09 6412.39,6457.5 6412.39,6541.86 6412.9,6542.4 6422.46,8136.6 4832.91,8136.6 4832.91,8543.02 6424.9,8543.02 6434.25,10101.09 4832.91,10101.09 4832.91,10507.51 6436.69,10507.51 6449.73,12680 6652.92,12678.74 6639.88,10507.51 11812.33,10507.51 11812.33,12679.37 12015.49,12679.37 12015.49,10507.51 14021.49,10507.51 15117.82,11016.76 13519.86,12614.64 13807.21,12901.99 15510.25,11199.03 16782.05,11789.79 16953.2,11421.21 14111.24,10101.09 12317.1,10101.09 14202.78,8742.06 "/>
  <polygon class="fil7" points="8853.27,12451.1 8142.11,12451.1 8142.11,7984.27 13484.98,7984.27 13484.98,6457.68 14196.14,6457.68 14196.14,8695.44 8853.27,8695.44 "/>
  <path class="fil10" d="M14290.55 6487.44c-2.69,613.89 -936.11,613.89 -938.81,0 2.78,-613.89 936.21,-613.89 938.81,0z"/>
  <path class="fil8" d="M14075.73 6487.44c4.84,330.3 -514.01,330.3 -509.16,0 -4.75,-330.3 514.01,-330.3 509.16,0z"/>
  <path class="fil10" d="M14865.97 3875.45c73.7,879.45 -1044.78,2017.74 -1044.78,2017.74 -2706.31,-2873.26 865.82,-4155 1044.78,-2017.74z"/>
  <path class="fil8" d="M14399.22 3862.18c-13,759.76 -1143.22,759.67 -1156.05,-0.09 12.91,-759.76 1143.13,-759.67 1156.05,0.09z"/>
  <polygon class="fil11" points="8497.78,9027.26 8497.78,11162.37 7089.06,11467.2 "/>
  <polygon class="fil12" points="9906.39,11467.2 8497.78,11162.37 8497.78,9027.26 "/>
  <path class="fil11" d="M10977.17 10991.21l-337.2 992.24 6194.98 0 -760.74 -1289.01c-249.43,-422.74 -670.55,-676.82 -1121.53,-676.82l-3966.81 0c-81.86,0 -125.7,97.01 -71.01,157.98 68.41,76.39 220.83,188.46 422.02,228 -156.54,157.53 -281.35,357.2 -359.71,587.61z"/>
  <polygon class="fil13" points="10391.08,13457.87 9935.44,13457.87 9935.44,13272.81 10391.08,13272.81 "/>
  <path class="fil14" d="M18643.43 12801.93c-12.37,96.47 -74.42,183.89 -170.53,224.06l-13.54 5.56 -0.09 0.09 -222.35 -517.41 18.92 -7.26c143.27,-59.98 308.15,7.62 368.04,150.98 19.73,47.16 25.64,96.74 19.55,143.99z"/>
  <path class="fil15" d="M18643.43 12801.93c-12.37,96.47 -74.42,183.89 -170.53,224.06l-13.54 5.56c2.69,-3.14 123.82,-144.89 66.53,-315.06 -58.01,-172.14 -288.97,-202.27 -288.97,-202.27l18.92 -7.26c143.27,-59.98 308.15,7.62 368.04,150.98 19.73,47.16 25.64,96.74 19.55,143.99z"/>
  <path class="fil14" d="M9966.64 12855.91c36.67,90.11 119.06,158.6 222.26,172.86l14.52 1.97 0.09 0 82.4 -557.13 -20.17 -2.15c-153.85,-21.25 -295.87,86.34 -317.03,240.19 -6.99,50.75 0,100.06 17.93,144.26z"/>
  <path class="fil15" d="M9966.64 12855.91c36.67,90.11 119.06,158.6 222.26,172.86l14.52 1.97c-3.41,-2.42 -156.81,-108.4 -145.06,-287.53 12.01,-181.2 227.55,-269.6 227.55,-269.6l-20.17 -2.15c-153.85,-21.25 -295.87,86.34 -317.03,240.19 -6.99,50.75 0,100.06 17.93,144.26z"/>
  <path class="fil11" d="M12042.03 13760.73c0,391.8 -317.57,709.46 -709.37,709.46 -391.8,0 -709.46,-317.66 -709.46,-709.46 0,-391.8 317.66,-709.37 709.46,-709.37 391.8,0 709.37,317.57 709.37,709.37z"/>
  <path class="fil12" d="M11682.15 13760.73c0,193.03 -156.45,349.49 -349.49,349.49 -193.03,0 -349.49,-156.45 -349.49,-349.49 0,-193.03 156.45,-349.49 349.49,-349.49 193.03,0 349.49,156.45 349.49,349.49z"/>
  <path class="fil11" d="M17758.15 13760.73c0,391.8 -317.57,709.46 -709.37,709.46 -391.8,0 -709.46,-317.66 -709.46,-709.46 0,-391.8 317.66,-709.37 709.46,-709.37 391.8,0 709.37,317.57 709.37,709.37z"/>
  <path class="fil12" d="M17398.26 13760.73c0,193.03 -156.45,349.49 -349.49,349.49 -193.03,0 -349.48,-156.45 -349.48,-349.49 0,-193.03 156.45,-349.49 349.48,-349.49 193.04,0 349.49,156.45 349.49,349.49z"/>
  <path class="fil16" d="M18610.79 13625.44c-26.9,78.09 -101.22,135.29 -189.99,135.29l-577.39 0c0,-46.08 -3.94,-91.27 -11.47,-135.29 -64.28,-374.32 -390.46,-659.25 -783.16,-659.25 -392.7,0 -718.87,284.93 -783.07,659.25l-0.09 0c-7.53,44.02 -11.47,89.21 -11.47,135.29l-4126.94 0c0,-46.08 -3.94,-91.27 -11.47,-135.29l0 0c-64.2,-374.32 -390.37,-659.25 -783.07,-659.25 -219.48,0 -418.07,88.94 -561.88,232.75 -143.81,143.72 -232.75,342.4 -232.75,561.8 -57.92,0 -112.88,-12.73 -162.19,-35.5 -132.96,-61.41 -225.22,-195.81 -225.22,-351.91l0 -451.34c0,-646.43 524.05,-1170.48 1170.48,-1170.48l5559.13 0c1394.45,0 1681.26,1262.74 1740.25,1786.16 3.5,30.75 -0.18,60.52 -9.68,87.77z"/>
  <path class="fil7" d="M11277.07 11889.22l298.02 -897.65 0.72 -1.79c65.81,-178.06 172.05,-340.7 307.08,-470.43 128.12,-123.01 283.68,-217.78 449.81,-273.9 44.02,-14.88 89.39,-27.26 134.76,-36.76 79.34,-16.77 161.29,-25.37 243.06,-25.37l2230.59 0c4.22,0 8.43,0 12.55,0.18 403.19,4.21 776.97,213.74 999.86,560.72l1.34 2.15 661.94 1142.87 -5339.73 0z"/>
  <path class="fil17" d="M16387.64 11751.51l-4920.05 0 244.68 -723.27c60.79,-161.2 156.09,-301.61 275.52,-414.22 115.12,-108.49 252.57,-190.97 403.01,-240.82 39.27,-13.09 79.53,-23.94 120.41,-32.28 70.74,-14.7 143.54,-22.32 217.69,-22.32l2197.42 0c3.41,0 6.9,0 10.31,0.09 360.78,3.41 696.73,188.1 896.48,493.21l554.53 939.61z"/>
  <path class="fil18" d="M12948.02 11751.51l-500.29 0 -459.94 -1137.48c115.12,-108.49 252.57,-190.97 403.01,-240.82l557.22 1378.3z"/>
  <path class="fil18" d="M13329.33 11751.51l-247.73 0 -570.4 -1410.58c70.74,-14.7 143.54,-22.32 217.69,-22.32l20.98 0 579.46 1432.91z"/>
  <polygon class="fil18" points="15134.77,11751.51 14634.39,11751.51 14055.02,10318.6 14555.4,10318.6 "/>
  <path class="fil18" d="M15515.99 11751.51l-247.73 0 -579.37 -1432.91 237.41 0c3.41,0 6.9,0 10.31,0.09l579.37 1432.82z"/>
  <polygon class="fil11" points="14154,12308.73 13822.72,12308.73 13822.72,12144.11 14154,12144.11 "/>
  <polygon class="fil11" points="13010.96,12308.73 12679.67,12308.73 12679.67,12144.11 13010.96,12144.11 "/>
  <path class="fil7" d="M17996.64 13625.44c-138.88,-1076.79 -1757.11,-1076.16 -1895.81,0l-2765.94 0 0 -681.04c0,-405.16 144.53,-798.4 406.96,-1107.18l19.54 -23.04 0 -1615.72 -164.52 0 0 1555.65c-275.34,334.78 -426.59,756.26 -426.59,1190.29l0 681.04 -889.67 0c-93.78,-698.61 -784.15,-934.05 -1307.12,-742.01 7.17,-328.42 85.98,-601.51 229.08,-791.95 111.89,-149.01 225.49,-196.8 226.56,-197.25l-0.54 0.18 -59.98 -153.23c-6.1,2.33 -149.82,60.07 -289.15,240.28 -123.73,160.04 -271.12,481.19 -271.12,977.98l6.19 -0.99c-246.56,144.98 -427.58,402.21 -438.69,766.75 49.31,22.77 104.27,35.5 162.19,35.5 28.24,-1051.95 1565.06,-1043.35 1589.18,0l1043.08 0 0 0 164.61 0 0 0 2919.25 0c16.23,-1043.79 1573.22,-1043.44 1589.27,0l577.39 0c88.76,0 163.09,-57.2 189.99,-135.29l-614.15 0z"/>
  <path class="fil11" d="M17665.98 12273.31l-889.05 0c-24.74,0 -44.83,-19.99 -44.83,-44.83 0,-24.75 20.09,-44.83 44.83,-44.83l889.05 0c24.74,0 44.83,20.08 44.83,44.83 0,24.84 -20.09,44.83 -44.83,44.83z"/>
  <path class="fil11" d="M17665.98 12435.59l-889.05 0c-24.74,0 -44.83,-20.08 -44.83,-44.92 0,-24.74 20.09,-44.83 44.83,-44.83l889.05 0c24.74,0 44.83,20.09 44.83,44.83 0,24.84 -20.09,44.92 -44.83,44.92z"/>
  <path class="fil11" d="M17665.98 12597.78l-889.05 0c-24.74,0 -44.83,-20.08 -44.83,-44.83 0,-24.75 20.09,-44.83 44.83,-44.83l889.05 0c24.74,0 44.83,20.08 44.83,44.83 0,24.75 -20.09,44.83 -44.83,44.83z"/>
  <path class="fil19" d="M2078.67 14432.53l-8.85 -4.66c0,6.19 -7.66,27.7 -13.84,27.7l-261.5 5.38c-6.19,0 -10,-11.66 -10,-17.84l-22.31 -6.37c0,-39.18 3.22,-53.35 20.52,-83.65 63.57,-84.55 -12.32,-462.45 -10.13,-561.17 -15.67,-26.99 275.38,-5.83 279.45,-12.19 6.54,0 11.68,5.56 11.17,12.1l-34.26 431.79c-15.37,82.04 47.55,131.62 49.74,208.9z"/>
  <path class="fil19" d="M3372.12 14470.19l-520.89 0c-45.46,-1.88 -45.12,-48.23 -36.74,-84.19 28.68,-129.64 -22.02,-427.31 -31.42,-560.63 -2.5,-24.39 16.66,-45.63 41.2,-45.63 384.36,-3.86 258.96,-34.7 229.17,379.97 -22.72,144.8 150.03,172.41 248.53,188.46 64.84,4.66 173.28,93.16 70.15,122.02z"/>
  <path class="fil20" d="M2794.65 14416.13c1.41,25.55 14.07,54.69 43.65,54.06l540.31 0c127.44,-47.34 -63.51,-216.34 -312.97,-215.36 -177.37,48.68 -277,-89.57 -270.99,161.29z"/>
  <path class="fil20" d="M1803.61 14470.19l230.93 0c112.55,-15.42 31.46,-231.32 -115.43,-215.72 -147.31,-18.65 -227.95,200.56 -115.5,215.72z"/>
  <path class="fil21" d="M3249.82 14397.03c4.53,0 8.82,-2.69 10.63,-7.17 20.77,-51.19 58.21,-66.88 59.79,-67.51 29.2,-46.08 -55.66,-13.27 -81.07,58.91 -3.16,7.35 2.7,15.96 10.64,15.78z"/>
  <path class="fil21" d="M3160.6 14386.27c4.91,0 9.44,-3.14 10.97,-8.07 18.35,-59.35 70.02,-86.79 70.55,-87.06 26.48,-53.52 -72.18,3.77 -92.48,80.24 -2.38,7.26 3.4,14.97 10.96,14.88z"/>
  <path class="fil21" d="M3059.06 14373.81c4.75,0 9.19,-2.96 10.85,-7.71 21.44,-61.69 70.95,-95.22 71.45,-95.49 29.29,-79.17 -132.39,82.04 -82.3,103.19z"/>
  <path class="fil21" d="M1836.28 14323.15c64.15,-38.91 162.55,-3.86 162.93,-1.08 66.99,-14.44 -91.42,-70.92 -168.73,-20.35 -10.08,5.47 -5.46,21.88 5.8,21.43z"/>
  <path class="fil22" d="M3416.43 14416.13l-621.77 0c2.28,19.01 7.53,37.39 17.05,54.06l566.91 0c27.92,0 47.73,-27.97 37.81,-54.06z"/>
  <path class="fil22" d="M1803.61 14470.19l230.93 0c29.38,0 53.02,-24.75 51.21,-54.06l-333.35 0c-1.78,29.32 21.83,54.06 51.21,54.06z"/>
  <path class="fil23" d="M3094.02 9186.05c0,0 56.59,-158.69 -78.06,-235.89l-102.16 52.9 180.23 182.99z"/>
  <path class="fil24" d="M3000.36 10466.71c508.48,388.13 1145.04,301.43 1505.8,31.38l18.82 -184.52c-832.08,64.55 -1034.23,-334.51 -1569.78,-576.68 0,0 39.48,717.35 45.16,729.81z"/>
  <path class="fil25" d="M1722.28 13959.41c0.87,36.22 1.86,72.8 3.06,109.83 0,0 195.88,129.28 389.05,39 75.58,-411.53 236.74,-1292.95 399.42,-2355.84 2.07,-31.29 294.82,1425.11 193.78,2389.55 0,0 217.27,56.04 413.27,-17.48 137.71,-492.04 142.49,-1384.94 44.1,-3253.05 0,0 -588.43,-33.17 -1016.42,-245.39 -368.87,427.85 -470.79,2619.26 -426.25,3333.38z"/>
  <path class="fil19" d="M2904.39 9717.8c24.4,-129.02 83.61,-361.05 -13.4,-418.25 -68.32,-37.39 -164.63,9.95 -156.08,95.49 7.28,-3.05 -10.96,233.65 -36.39,295.96 -201.17,25.1 342.9,311.11 205.87,26.81z"/>
  <path class="fil26" d="M2734.75 9384.1c-0.1,3.59 -0.07,7.26 0.16,10.94 5.28,-2.42 -3.12,128.48 -18.74,221.9 81.01,54.69 181.79,53.61 200.31,52.99 14.72,-137.45 67.37,-307.35 -25.51,-370.38 -63.55,-40.79 -155.71,7.8 -156.23,84.55z"/>
  <path class="fil19" d="M2611.37 9274.81c-0.63,93.96 12.85,202.18 74.86,274.8l0.1 0c2.53,2.96 5.05,5.74 7.79,8.43l0.11 0.27c93.82,88.94 242.5,104.72 361.35,36.4l0.11 0c95.59,-63.3 139.29,-162.82 109.28,-250.14 -20.53,-52 -65.91,-102.39 -70.96,-158.61 -30.61,-340.97 -480.55,-274.44 -482.64,88.85z"/>
  <path class="fil27" d="M2969.75 9277.23c11.05,-14.44 -11.95,-31.47 -22.57,-16.68 -11.04,14.52 11.95,31.47 22.57,16.68z"/>
  <path class="fil27" d="M3089.37 9277.31c11.05,-14.52 -11.95,-31.47 -22.56,-16.67 -11.05,14.43 11.94,31.47 22.56,16.67z"/>
  <path class="fil26" d="M2611.37 9274.81c-0.63,93.96 12.85,202.18 74.86,274.8l0.1 0c2.53,2.96 5.05,5.74 7.79,8.43 -73.56,-147.31 -53.79,-177.61 -20.63,-280.18 108.4,-77.11 104.58,-182.36 206.08,-181.91 101.49,0.27 184.32,-13.45 184.32,-13.45 -113.81,-242.34 -453.99,-102.12 -452.52,192.32z"/>
  <path class="fil27" d="M3036.72 9391.18c23.1,-0.63 52.78,-11.21 27.79,-35.32 -23.74,-18.56 -33.84,-76.03 -33.94,-76.57 -23.67,-21.97 0.39,64.19 27.4,84.91 18.4,16.05 -26.4,20.98 -42.98,11.83 -23.97,3.77 11.47,18.2 21.73,15.15z"/>
  <path class="fil11" d="M1937.14 11262.07c284.89,215.53 960.68,271.57 1245.15,168.64 95.88,-40.62 109.29,-363.56 98.17,-680.77 -17.05,-422.82 -120.1,-728.47 -315.21,-1010.98 -2.4,-0.99 -39.49,-17.48 -60.75,-21.07 0.94,38.64 -7.88,150.27 -205.93,-26.9 -0.88,0.72 -59.13,-7.08 -77.33,0.72 -18.98,14.44 -233.41,153.94 -238.87,176.63 -16.15,67.87 -88.56,235.71 -167.75,431.34 -91.54,228.81 -185.38,463.26 -225.67,677.54 -15.71,89.12 -108.3,200.83 -51.81,284.84z"/>
  <path class="fil23" d="M2595.19 9148.12c31.89,-268.61 198.04,-260.54 198.04,-260.54l0 0c142.99,-190.43 461.78,-94.95 329.06,119.07 -75.3,131.88 -267.91,-15.15 -381.61,153.76 -45.7,67.96 -73.97,109.83 -153.23,144.62 0,0 -10.4,-84.19 7.73,-156.9z"/>
  <path class="fil19" d="M2545.53 9311.21c3.23,106.87 138.05,101.31 132.42,-5.47 -3.22,-106.87 -138.05,-101.31 -132.42,5.47z"/>
  <path class="fil27" d="M3033.34 9467.48c19.07,1.79 36.28,-7.89 18.87,-12.64 -2.17,0.63 -54.08,13.9 -108.48,-36.58 -2.15,-1.97 -5.51,-1.79 -7.52,0.36 16.06,40.44 81.54,48.6 97.12,48.86z"/>
  <path class="fil28" d="M2624.15 9693.06c65.2,111.27 353.04,284.48 341.16,46 -2.43,-1.08 -39.41,-17.48 -60.81,-21.16 0.45,6.28 11.78,170.26 -205.97,-26.99 0.24,1.7 -58.07,-8.79 -74.38,2.15z"/>
  <path class="fil29" d="M2998.1 14048.62c228.24,-1123.5 -12.69,-2571.47 -49.23,-2582.23 -18.73,8.7 191.2,1464.11 46.27,2582.58 -84.34,10.4 -188.37,8.79 -276.12,-36.49 -3.49,43.39 -7.31,86.61 -11.45,129.47 0,0 217.27,56.04 413.27,-17.48 0,0 12.87,-37.57 33.16,-111.98 0,0 -66.54,24.65 -155.9,36.13z"/>
  <path class="fil29" d="M1939.14 14026.66c192.4,-1221.13 401.51,-2603.3 374.73,-2624.28 -27.82,3.95 -241.4,1411.03 -378.16,2623.92 -65,-6.46 -139.61,-24.75 -213.43,-66.88 0.87,36.22 1.86,72.8 3.06,109.83 0,0 195.88,129.28 389.05,39 0,0 6.32,-33.8 17.67,-95.76 0,0 -81.98,24.39 -192.92,14.17z"/>
  <path class="fil28" d="M2250.6 9802.89c0,0 -289.02,228.54 -354.66,603.93 -102.15,584.21 175.63,903.21 770.34,1064.86 0,0 18.61,-73.52 98.6,-97.01 0,0 -284.7,-219.75 -356.39,-482.71 -71.68,-262.97 -37.03,-642.22 99.77,-791.32 0,0 -107.3,-245.84 -257.66,-297.75z"/>
  <path class="fil7" d="M2449.96 9721.39c64.18,-69.3 179.43,-74.24 199.49,-8.61 63.39,207.2 155.52,394.85 186.7,455.82 9.35,-6.19 22.16,-8.97 32.97,-9.41 148.04,-211.5 114.84,-408.21 114.84,-408.21 91.98,-6.28 152.24,29.23 184.92,85.17 159.76,58.63 140.49,184.78 -5.6,279.55 -34.11,75.22 -91.83,142.38 -168.81,178.51 55.85,128.03 123.38,330.3 46.58,369.12 -34.61,32.72 -120.19,47.52 -122.32,-47.97 -1.77,-78.99 -6.04,-199.22 -15.67,-273.72 -7.87,1.17 -16.72,0.63 -26.69,-2.06 0.08,0 -11.36,264.13 32.22,429.37 43.54,165.06 -160.93,133.68 -228.04,79.61 -52.66,-42.5 -6.54,-378.26 70.15,-559.82 -46.33,-25.28 -93.63,-62.94 -137.76,-106.87l0.03 0.09c-83.31,-84.37 -659.08,-408.75 -162.99,-460.57z"/>
  <polygon class="fil11" points="2194.16,12229.29 2069.93,12059.21 4854.47,10024.61 4978.71,10194.69 "/>
  <polygon class="fil7" points="2194.17,12229.29 2069.93,12059.21 3527.42,10994.26 3651.66,11164.34 "/>
  <path class="fil8" d="M5106.78 10101.09l-196.27 0c-233.42,-330.75 -286.08,-735.55 -177.41,-1095.97l0.06 0 85.53 85.53 288.09 288.07 0 722.37z"/>
  <path class="fil30" d="M5945.95 10637.33c-193.31,0 -385.31,-44.11 -559.88,-129.82l849.46 0 75.87 75.85 0.03 0.09c-119.69,36.13 -242.81,53.97 -365.47,53.88zm-116.79 -536.24l-722.39 0 0 -722.37 722.39 722.37z"/>
  <path class="fil8" d="M6235.53 10507.51l-849.46 0c-174.85,-85.8 -332.35,-213.3 -456.31,-379.79l-13.62 -18.65c-1.88,-2.69 -3.77,-5.29 -5.63,-7.98l196.27 0 722.39 0 396.35 396.38 10.01 10.04z"/>
  <path class="fil30" d="M6963.69 10101.09l-274.23 0 -52.33 -52.27 -1.66 -275.88 261.84 261.8 66.38 66.35zm-530.97 -256.69l-1301.18 -1301.2 -0.15 -0.18 274.18 0 1025.49 1025.5 1.66 275.87z"/>
  <path class="fil8" d="M6847.53 10259.25l-74.56 -74.59 -83.51 -83.56 274.23 0 9.3 9.32 0.04 0.09c-37.56,52.18 -79.4,101.94 -125.5,148.74zm-210.4 -210.43l-204.41 -204.42 -1.66 -275.87 204.41 204.42 1.66 275.88zm-1231.56 -1505.8l-274.18 0 -74.26 -74.33c45.7,-44.83 95.33,-86.7 148.92,-125.16l75.57 75.49 123.95 124z"/>
  <path class="fil30" d="M7153.27 9748.82l-0.03 0 -85.59 -85.62 -435.46 -435.47 -5.54 -923.38c131.65,84.1 249.88,194.11 346.54,328.78 241.03,335.68 294.19,749.36 180.08,1115.7zm-725.48 -725.51l-480.34 -480.3 477.45 0 2.89 480.3zm-203.84 -886.72l-559.61 0c92.29,-20.89 186.04,-31.2 279.48,-31.2 94.32,0 188.33,10.49 280.13,31.2z"/>
  <path class="fil8" d="M6632.2 9227.74l-204.41 -204.42 -2.89 -480.3 -477.45 0 -294.83 -294.88 -0.06 0 -85.35 -85.36 -0.03 0c32.17,-10.04 64.54,-18.74 97.16,-26.18l559.61 0c141.7,32.01 278.24,88.31 402.71,167.75l5.54 923.38z"/>
  <path class="fil31" d="M4929.76 10127.72c-4.45,-6.01 -8.82,-12.01 -13.17,-18.02 -0.15,-0.27 -0.29,-0.45 -0.45,-0.63l13.62 18.65z"/>
  <path class="fil30" d="M7105.74 10101.09l-126.05 0c76.67,-108.67 134.78,-227.73 173.59,-352.27l82.75 82.76c-33.23,93.69 -76.76,184.16 -130.28,269.51z"/>
  <path class="fil8" d="M7048.2 10185.64l-75.16 -75.13c2.22,-3.14 4.47,-6.28 6.65,-9.41l126.05 0c-18.05,28.78 -37.24,57.02 -57.54,84.55z"/>
  <path class="fil30" d="M5541.04 8136.6l-192.77 0c44.58,-21.52 89.96,-40.43 135.93,-56.84l56.83 56.84z"/>
  <path class="fil8" d="M5206.05 8343.53l-75.38 -75.4c4.81,-3.59 9.67,-7.08 14.53,-10.58 65.19,-46.8 133.15,-87.06 203.07,-120.95l192.77 0 26.14 26.18c-125.84,39.36 -247.61,99.16 -360.57,180.3 -0.18,0.09 -0.39,0.27 -0.57,0.45z"/>
  <path class="fil32" d="M6979.69 10101.09l-16 0 -66.38 -66.35 -261.84 -261.8 -3.27 -545.21 435.46 435.47 85.59 85.62 0.03 0c-38.8,124.53 -96.91,243.6 -173.59,352.27zm-548.62 -532.57l-1025.49 -1025.5 541.88 0 480.34 480.3 3.27 545.21z"/>
  <path class="fil8" d="M6973.03 10110.5l-0.04 -0.09 -9.3 -9.32 16 0c-2.19,3.14 -4.43,6.27 -6.65,9.41zm-337.56 -337.56l-204.41 -204.42 -3.27 -545.21 204.41 204.42 3.27 545.21zm-688.02 -1229.92l-541.88 0 -123.95 -124 -75.57 -75.49c0.18,-0.18 0.39,-0.36 0.57,-0.45 112.96,-81.14 234.73,-140.94 360.57,-180.3l0.03 0 85.35 85.36 0.06 0 294.83 294.88z"/>
  <path class="fil30" d="M6394.82 10666.83l-83.39 -83.38c42.33,-12.82 84.2,-27.97 125.46,-45.37l0.67 113.06c-14.18,5.47 -28.43,10.67 -42.74,15.69zm245.34 -113.5l-0.27 -45.82 72.71 0c-23.81,16.14 -47.98,31.38 -72.44,45.82z"/>
  <path class="fil8" d="M6437.56 10651.14l-0.67 -113.06c85.27,-36.04 167.91,-82.13 246.28,-138.34 59.66,-42.86 114.49,-89.93 164.37,-140.49l0.01 0 74.39 74.33c-53.81,54.69 -113.02,105.53 -177.39,151.7 -10.57,7.53 -21.22,14.97 -31.95,22.24l-72.71 0 0.27 45.82c-65.58,38.64 -133.36,71.19 -202.6,97.82z"/>
  <path class="fil8" d="M4733.1 9005.12l-83.77 -83.83c47.16,-136.64 115.31,-264.04 202.09,-378.27l135.87 0c-118.31,136.55 -203.68,294.44 -254.2,462.1z"/>
  <path class="fil8" d="M4987.3 8543.02l-135.87 0c39.87,-52.54 83.67,-102.21 131.17,-148.83l74.53 74.51c-24.4,23.94 -47.71,48.77 -69.82,74.33z"/>
  <path class="fil8" d="M5106.78 9378.72l-288.09 -288.07 -85.53 -85.53 -0.06 0c50.52,-167.66 135.88,-325.55 254.2,-462.1l119.48 0 0 835.7z"/>
  <path class="fil32" d="M6311.42 10583.45l-0.03 -0.09 -75.87 -75.85 201.17 0 0.19 30.57c-41.26,17.39 -83.13,32.54 -125.46,45.37zm378.04 -482.36l-52.02 0 -0.31 -52.27 52.33 52.27zm-255.21 0l-605.09 0 -722.39 -722.37 0 -835.7 24.61 0 0.15 0.18 1301.18 1301.2 1.53 256.69z"/>
  <path class="fil8" d="M6436.88 10538.08l-0.19 -30.57 -201.17 0 -10.01 -10.04 -396.35 -396.38 605.09 0 -1.53 -256.69 204.41 204.42 0.31 52.27 52.02 0 83.51 83.56 74.56 74.59c-49.88,50.57 -104.71,97.64 -164.37,140.49 -78.37,56.21 -161.01,102.3 -246.28,138.34zm-1305.49 -1995.06l-24.61 0 -119.48 0c22.12,-25.55 45.42,-50.39 69.82,-74.33l74.26 74.33z"/>
  <path class="fil11" d="M7067.66 9663.2c-97.65,401.66 -441.32,740.66 -842.14,834.26 -1128.64,285.2 -1934.61,-1131.03 -1093.95,-1954.36 830.12,-818.4 2233.6,-5.38 1936.09,1120.09zm-8.96 -1091.49c-698.96,-992.24 -2290.15,-604.74 -2466.86,577.58 -197.66,992.87 874.75,1877.25 1803,1517.45 842.58,-275.07 1205.62,-1366.65 663.85,-2095.03z"/>
  <path class="fil19" d="M4625.58 10484.73c53.52,43.22 100.83,-31.38 26.03,-39.72l0.96 0.72c-29.34,-22.86 -54.98,18.2 -26.99,39z"/>
  <path class="fil19" d="M4663.18 10457.57c69.39,37.39 89.38,-56.48 22.1,-43.93 1.51,0.09 -6.41,-1.61 -5,-1.43 -33.68,-16.77 -47.04,31.47 -17.1,45.37z"/>
  <path class="fil19" d="M4703.46 10430.4l25.8 4.93c36.27,5.65 31.43,-47.25 1.08,-51.02l-25.79 -4.93c-36.27,-5.65 -31.43,47.25 -1.09,51.02z"/>
  <path class="fil19" d="M4734.75 10401.35l25.8 4.93c36.27,5.65 31.44,-47.25 1.09,-51.02l-25.79 -4.93c-36.27,-5.65 -31.43,47.16 -1.09,51.02z"/>
  <path class="fil19" d="M2974.57 11409.55l-50.62 36.4 0.67 1.08c21.81,33.35 51.33,60.97 85.82,80.96 33.39,19.28 66.13,38.47 102.93,53.35 48.21,72.26 -149.19,-15.06 -173.76,-20.17l-0.41 0.81c45.3,39.72 93.02,76.75 143.76,109.2 32.54,86.34 -158,-58.9 -180.74,-71.91l-0.25 0.36c35.79,45.01 77.48,85.44 123.19,120.41 25.11,90.37 -156.28,-72.89 -173.88,-92.88l-0.66 0.27c22.74,39.9 50.83,76.74 80.69,111.62 11.91,88.94 -124.41,-77.19 -137.99,-97.19 -14.38,-7.98 -84.88,-74.51 -127.03,-170.17 -13.82,-31.38 70.53,-114.49 98.6,-97.01 21.06,13.18 89.18,13.18 103.98,17.49 34.45,4.84 70.09,3.86 105.71,17.39z"/>
  <path class="fil27" d="M2907.59 9240.92c-1.27,0 -2.55,-0.45 -3.56,-1.35 -2.15,-1.97 -2.29,-5.29 -0.32,-7.44 31.79,-34.61 76.7,-32.28 78.57,-32.19 2.9,0.18 5.1,2.69 4.93,5.56 -0.18,2.87 -2.8,5.11 -5.57,4.93 -0.39,0 -41.88,-1.97 -70.18,28.78 -1.04,1.17 -2.46,1.71 -3.88,1.71z"/>
  <path class="fil27" d="M3092.3 9225.67c-1.14,0 -2.29,-0.36 -3.26,-1.16 -0.25,-0.18 -24.77,-19.1 -54.22,-14.17 -2.86,0.45 -5.59,-1.43 -6.07,-4.3 -0.49,-2.87 1.45,-5.65 4.31,-6.1 34.16,-5.74 61.37,15.42 62.51,16.32 2.28,1.79 2.66,5.11 0.86,7.44 -1.04,1.26 -2.57,1.97 -4.13,1.97z"/>
  <path class="fil27" d="M2640.92 9274.45c3.7,-10.85 -30.05,-24.57 -54.4,-12.19 -12.44,5.56 -29.09,50.75 -10.77,76.12 3.17,0 5.71,-2.87 5.27,-6.01 -2.9,-22.24 -1.87,-39.09 2.76,-49.94l1.34 0.54c1.43,0.36 35.17,8.34 43.74,56.4 0.5,2.87 2.98,4.84 5.76,4.84l1.03 -0.09c3.19,-0.54 5.31,-3.59 4.74,-6.81 -8.52,-47.7 -39.42,-61.5 -49.56,-64.82l1.48 -1.34c23.09,-13.09 40.19,12.64 48.59,3.32z"/>
  <path class="fil23" d="M10424.34 911.01c0,0 77.91,-150.54 315.5,-106.07 237.59,44.47 293.63,345.9 374.23,483.08 170.8,290.67 221.99,599.54 133.23,747.92 -98.53,164.79 -316.13,100.33 -633.97,70.74 -339.08,-31.47 -481.19,-325.81 -270.23,-730.53l81.23 -465.14z"/>
  <path class="fil4" d="M10522.87 1610.88c-92.89,136.19 -152.24,800.37 -154.12,852.02 -109.29,-8.07 -371.81,-27.52 -483.79,-35.77 -31.65,-243.15 290.76,-741.74 584.75,-800.82l0 -0.09c33.08,-11.21 53.17,-15.33 53.17,-15.33z"/>
  <path class="fil19" d="M9145.28 5272.4l472.32 -5.11c-1.16,-75.58 -21.34,-228 -6.27,-314.07l-203.97 26.27c5.65,41.42 18.2,131.08 -50.48,152.6 -88.94,27.79 -185.86,19.27 -241.36,87.77 -14.44,22.95 2.6,52.9 29.77,52.54z"/>
  <path class="fil33" d="M9631.5 5221.66c-1.79,15.96 -6.01,31.56 -13.9,45.64l-476.98 5.2c-23.13,0.27 -40.17,-22.42 -32.72,-44.38 17.57,-51.28 79.62,-126.15 299.37,-140.13 0,0 75.04,21.43 197.7,-2.15 0,0 33.71,70.92 26.54,135.83z"/>
  <path class="fil21" d="M9248.12 5209.73c-3.76,0 -7.35,-2.24 -8.96,-5.92 -17.93,-42.95 -49.58,-55.77 -50.93,-56.31 -25.28,-38.46 46.89,-11.66 68.77,48.86 2.78,6.19 -2.15,13.54 -8.88,13.36z"/>
  <path class="fil21" d="M9323.08 5199.87c-4.04,0 -7.89,-2.6 -9.15,-6.72 -16.05,-49.76 -59.8,-72.35 -60.25,-72.53 -23.04,-44.83 60.97,2.51 78.63,66.61 2.06,6.1 -2.78,12.73 -9.23,12.64z"/>
  <path class="fil21" d="M9408.43 5188.39c-3.94,0 -7.62,-2.42 -9.06,-6.37 -18.65,-51.64 -60.61,-79.44 -61.06,-79.71 -17.93,-47.07 58.55,9.42 79.17,73.16 2.42,6.19 -2.51,13.09 -9.06,12.91z"/>
  <path class="fil34" d="M9108.17 5227.39l523.33 -5.74c-1.79,15.96 -6.01,31.56 -13.9,45.64l-476.98 5.2c-23.49,0.27 -40.61,-23.04 -32.45,-45.1z"/>
  <path class="fil35" d="M10641.76 3469.03c-232.48,-9.77 -637.55,-137.8 -812.21,157.98 -191.33,323.03 -144.44,1008.38 -125.16,1339.48 -255.17,82.21 -392.43,0 -392.43,0 -108.75,-677.9 -466.85,-2222.16 730.62,-2007.88l803.06 -0.09c134.31,273.82 14.26,505.94 -203.88,510.51z"/>
  <path class="fil19" d="M9711.74 5272.4l472.32 -5.2c-1.17,-75.49 -21.34,-227.91 -6.27,-314.07l-203.97 26.36c5.65,41.42 19.81,131.08 -50.48,152.6 -89.21,27.17 -185.86,19.27 -241.45,87.68 -14.34,23.04 2.69,52.9 29.86,52.63z"/>
  <path class="fil33" d="M10197.95 5221.57c-1.79,16.05 -6.01,31.56 -13.9,45.63l-476.98 5.29c-23.13,0.27 -40.17,-22.42 -32.72,-44.38 17.57,-51.28 79.62,-126.24 299.28,-140.13 0,0 75.04,21.43 197.79,-2.15 0,0 33.71,70.92 26.54,135.74z"/>
  <path class="fil21" d="M9814.58 5209.73c-3.76,0 -7.35,-2.24 -8.96,-5.92 -17.93,-42.95 -49.58,-55.77 -50.93,-56.31 -25.28,-38.46 46.89,-11.74 68.77,48.86 2.78,6.19 -2.15,13.45 -8.88,13.36z"/>
  <path class="fil21" d="M9889.53 5199.87c-4.04,0 -7.89,-2.6 -9.15,-6.72 -16.05,-49.76 -59.8,-72.35 -60.25,-72.62 -23.04,-44.83 60.97,2.51 78.63,66.7 2.06,6.1 -2.78,12.73 -9.23,12.64z"/>
  <path class="fil21" d="M9974.89 5188.39c-3.94,0 -7.71,-2.42 -9.06,-6.37 -18.65,-51.64 -60.61,-79.44 -61.06,-79.71 -17.93,-47.07 58.55,9.32 79.17,73.16 2.42,6.1 -2.51,13.09 -9.06,12.91z"/>
  <path class="fil34" d="M9674.62 5227.31l523.33 -5.74c-1.79,16.05 -6.01,31.56 -13.9,45.63l-476.98 5.29c-23.49,0.27 -40.62,-23.04 -32.45,-45.19z"/>
  <path class="fil36" d="M10107.94 2958.52l-68.68 500.74c-300.26,118.26 -320.44,442.55 -347.87,798.22 -139.06,-549.51 -128.39,-1113.28 416.55,-1298.96z"/>
  <path class="fil37" d="M10944.35 3492.25c-243.33,149.73 -486.39,-13.63 -657.46,331.82 -138.07,302.42 -60.7,880.44 -22.77,1142.42 -255.26,82.21 -392.43,0 -392.43,0 -151.34,-584.75 -497.42,-1943.87 480.56,-2007.88 267.9,-8.61 619.8,-6.19 856.5,-20.44 0,0 65.72,350.83 -264.4,554.08z"/>
  <path class="fil4" d="M11213.51 2799.83c20.71,148.11 -9.32,320.35 -9.32,320.35 -316.22,-100.59 -603.67,-109.83 -1083.96,-176.89 303.31,-908.59 -399.15,-272.83 402.65,-1332.4 1.97,0.18 196.8,17.84 198.59,17.93 225.4,169.54 370.64,394.4 492.04,1171.02z"/>
  <path class="fil38" d="M10113.23 2259.01c-4.75,0 -8.52,-4.12 -8.07,-8.79 16.05,-132.69 156.63,-304.75 175.1,-295.51 12.55,16.23 -149.55,158.69 -159.05,296.86 -0.36,4.21 -3.86,7.44 -7.98,7.44z"/>
  <polygon class="fil39" points="9272.69,3010.52 10335.49,3010.52 10123.9,2231.4 9067.46,2231.4 "/>
  <polygon class="fil40" points="10335.49,3006.67 10335.49,3059.57 9272.69,3059.57 9272.69,3006.67 "/>
  <polygon class="fil41" points="10107.94,2231.4 10145.95,2231.4 10353.24,3006.67 10857.65,3006.67 10857.65,3059.57 10317.83,3059.57 10317.83,3012.23 "/>
  <path class="fil19" d="M11070.95 1779.7c244.94,183.62 375.84,514.1 311.11,814.63 -24.75,168.83 -131.26,329.31 -297.93,377.1 -82.22,32.9 -465.95,85.8 -448.11,-50.39 6.1,-32.64 35.06,-44.74 63.12,-53.43 46.26,-16.32 93.96,-34.34 138.07,-54.42 78.99,-40.97 180.57,-79.35 197.79,-168.11 36.58,-207.11 -48.24,-409.56 -202.98,-544.76 0.27,0.18 -0.81,-0.63 1.52,1.08 -209.71,-156.18 26.36,-475.99 237.41,-321.69z"/>
  <path class="fil4" d="M11217.72 2934.49c-124.72,55.68 -242.88,72.71 -333.71,76.03 0,0 20.98,-135.56 -76.93,-191.33 551.67,-419.33 -236.34,-595.77 -84.91,-1211.9 591.56,10.58 1202.31,907.25 495.54,1327.2z"/>
  <path class="fil19" d="M10401.92 3006.67c0,0 47.34,-165.51 329.94,-146.41l59.18 146.41 -389.11 0z"/>
  <path class="fil38" d="M10949.55 3005.95c-40.35,4.48 -65.54,4.57 -65.54,4.57 0,0 20.98,-135.56 -76.93,-191.33 0,0 24.12,-15.69 55.59,-43.48 0,0 107.32,78.81 86.88,230.24z"/>
  <path class="fil38" d="M10857.65 2798.84c-7.17,0.18 -10.94,-9.51 -5.29,-14.08 245.03,-218.32 124.98,-449.45 -20.71,-599.09 -7.17,-7.35 4.75,-18.83 11.74,-10.94 155.02,154.93 272.56,410.9 14.26,624.11z"/>
  <path class="fil38" d="M10944.35 3006.76c-45.82,-26.63 128.66,-13.36 261.35,-76.03 4.12,-1.7 8.79,0.27 10.49,4.31 1.7,4.12 -0.27,8.87 -4.39,10.49 -137.08,56.31 -265.66,61.24 -267.45,61.24z"/>
  <path class="fil42" d="M10776.78 1855.19c-5.65,42.41 -46.08,55.59 -56.22,53.35 -142.38,-60.79 -41.15,131.26 -99.61,150.81 -49.31,16.41 -55.14,-47.79 -98.09,-51.28 -62.31,-5.11 -74.95,28.78 -96.83,8.16 -30.48,-28.69 43.3,-78.81 33.89,-130.18 -6.64,-36.13 -78.45,0.18 -77.46,-74.15 1.08,-72.89 84.64,-182.18 87.24,-185.59l0 -0.09c52.54,-29.32 166.94,-15.96 218.94,-15.33 0.72,-5.2 33.53,-3.59 33.53,-3.59 0,0 22.86,-5.02 44.92,3.32 10.85,59.35 20.98,181.02 9.68,244.59z"/>
  <path class="fil19" d="M10527.71 1540.32l-4.84 70.56c0,0 -6.54,67.87 -6.54,194.11 0,177.43 43.84,156.72 104.63,32.81 33.35,-68.14 101.22,-224.95 101.22,-224.95 0,0 -0.36,-46.35 3.32,-74.86l-197.79 2.33z"/>
  <path class="fil26" d="M10764.14 1338.23c-0.81,3.41 -1.7,6.82 -2.87,10.04 -4.21,-3.5 -28.42,113.95 -37.3,203.52 -84.82,49.67 -183.08,43.13 -199.94,37.93 4.57,-132.51 15.69,-330.75 117.72,-367.69 68.41,-21.7 140.85,45.73 122.38,116.2z"/>
  <path class="fil23" d="M10506.91 901.87c-256.33,-30.75 -296.95,373.87 -122.74,522.7l122.74 -522.7z"/>
  <path class="fil19" d="M10809.15 1186.98c12.37,88.31 13.18,191.96 -36.22,268.17l-0.09 0c-134.84,220.56 -581.07,78.36 -458.87,-183.17 18.02,-33.35 28.15,-73.97 29.41,-108.4 4.03,-361.23 430.09,-285.38 465.77,23.4z"/>
  <path class="fil27" d="M10471.86 1233.96c-12.19,-12.19 7.35,-31.11 19.19,-18.47 12.19,12.19 -7.35,31.11 -19.19,18.47z"/>
  <path class="fil27" d="M10359.16 1249.02c-12.19,-12.28 7.35,-31.2 19.19,-18.56 12.19,12.28 -7.26,31.11 -19.19,18.56z"/>
  <path class="fil27" d="M10426.31 1349.17c-22.5,3.59 -55.23,-2.24 -33.89,-29.32 20.08,-20.44 22.41,-75.76 22.41,-76.3 0.18,-6.54 10.4,-6.27 10.04,0.36 -0.09,2.42 -2.42,59.8 -25.28,83.02 -2.51,2.6 -5.2,6.28 -3.32,8.52 5.38,6.37 30.75,7.35 45.37,-2.78 2.24,-1.61 5.38,-1.08 6.99,1.26 3.77,10.58 -14.44,12.82 -22.32,15.24z"/>
  <path class="fil26" d="M10809.15 1186.98c12.37,88.31 13.18,191.96 -36.22,268.17l-0.09 0c22.77,-57.11 14.26,-166.49 14.26,-166.49l-31.47 -40.17c-321.33,-4.3 -368.58,-246.83 -368.58,-246.83 141.21,-189.72 405.34,-18.38 422.11,185.32z"/>
  <path class="fil23" d="M10411.7 971.26c0,0 47.79,238.67 338.64,253.1l77.91 -80.69c36.22,-207.83 -210.78,-420.58 -416.55,-172.41z"/>
  <path class="fil19" d="M10875.68 1212.98c10.31,101.14 -117.36,112.7 -125.34,11.39 -10.4,-101.04 117.36,-112.61 125.34,-11.39z"/>
  <path class="fil27" d="M10845.64 1186.89l0 0c-13,-40.08 -90.11,2.69 -57.29,4.21 0.09,-1.79 34.25,-22.24 44.92,-4.48 -33.71,15.87 -44.92,78.63 -25.37,58.37 0,-0.36 4.03,-36.13 30.57,-49.67 13.09,91.36 25.1,27.97 7.17,-8.43z"/>
  <path class="fil42" d="M10836.58 1273.41c4.48,13.99 -17.57,20.71 -21.7,6.63 -4.48,-13.99 17.57,-20.8 21.7,-6.63z"/>
  <path class="fil38" d="M10516.33 2105.79c0.45,29.23 -45.55,29.23 -45.19,0 -0.36,-29.32 45.63,-29.32 45.19,0z"/>
  <path class="fil38" d="M10472.04 2264.66c0.36,29.23 -45.63,29.23 -45.19,0 -0.45,-29.32 45.55,-29.32 45.19,0z"/>
  <path class="fil38" d="M10472.04 2407.67c0.36,29.23 -45.63,29.23 -45.19,0 -0.45,-29.32 45.55,-29.32 45.19,0z"/>
  <path class="fil38" d="M9696.5 4852.8c4.12,70.92 7.89,113.69 7.89,113.69 -255.17,82.21 -392.43,0 -392.43,0 0,0 -7.17,-35.6 -18.11,-96.92 3.05,1.52 163.54,80.42 402.65,-16.77z"/>
  <path class="fil38" d="M10264.12 4966.49c-255.26,82.21 -392.43,0 -392.43,0 0,0 -9.32,-32.82 -23.76,-89.57 0,0 141.48,73.25 402.92,0 7.71,56.13 13.27,89.57 13.27,89.57z"/>
  <path class="fil26" d="M10417.35 3004.96c-50.21,1.52 132.6,-123.82 187.12,-93.15 0.45,4.39 -2.78,8.34 -7.17,8.79 -102.92,10.76 -171.24,84.1 -179.94,84.37z"/>
  <path class="fil26" d="M10494.81 3007.83c-38.19,-16.32 80.24,-44.11 138.88,-59.98 4.31,-0.99 8.52,1.88 9.41,6.19 0.9,4.39 -1.88,8.61 -6.19,9.5 -62.49,12.91 -135.83,43.57 -142.11,44.29z"/>
  <path class="fil27" d="M10513.73 1193.07c-1.25,0 -2.42,-0.45 -3.49,-1.26 -32.1,-25.1 -61.24,-16.95 -62.49,-16.59 -3.05,0.9 -6.19,-0.81 -7.08,-3.85 -0.9,-2.96 0.81,-6.19 3.77,-7.08 1.43,-0.45 35.86,-10.4 72.8,18.56 2.51,1.88 2.96,5.56 0.99,7.98 -1.08,1.43 -2.78,2.24 -4.48,2.24z"/>
  <path class="fil27" d="M10345.89 1206.88c-1.08,0 -2.24,-0.36 -3.23,-0.99 -2.6,-1.79 -3.32,-5.38 -1.52,-7.98 0.72,-1.08 18.56,-27.08 48.23,-25.91 3.23,0.09 5.65,2.78 5.56,5.92 -0.18,3.14 -2.78,5.65 -6.01,5.47 -23.31,-0.72 -38.19,20.71 -38.28,20.89 -1.16,1.71 -2.96,2.6 -4.75,2.6z"/>
  <path class="fil27" d="M10491.22 1353.47c-5.65,0 -12.82,2.42 -19.72,7.71 -11.84,9.14 -15.42,21.52 -11.3,26.9 4.21,5.47 17.12,5.11 28.96,-4.12 11.84,-9.14 15.42,-21.52 11.3,-26.9 -1.79,-2.33 -5.11,-3.59 -9.23,-3.59zm-21.88 49.67c-7.44,0 -13.99,-2.6 -18.2,-7.98 -8.88,-11.57 -2.96,-30.39 13.36,-43.03 16.32,-12.64 36.13,-13.54 45.01,-2.06l0 0c8.88,11.48 2.96,30.3 -13.36,42.95 -8.7,6.72 -18.29,10.13 -26.81,10.13z"/>
  <path class="fil33" d="M19619.98 10375.17c-9.42,4.93 117.18,3.94 109.02,13.36 -266.64,230.6 -664.36,303.58 -959.51,78.99l0 -0.27c-87.87,-64.28 -176.54,-167.66 -238.22,-275.79l72.44 -117.54c575.42,354.95 803.24,-250.77 1271.16,-297.93l-93.69 136.73 -161.2 462.45z"/>
  <path class="fil19" d="M20258.88 14432.8l8.79 -4.57c0,6.1 7.62,27.44 13.72,27.44l259.65 5.38c6.19,0 9.95,-11.57 9.95,-17.75l22.15 -6.28c0,-38.91 -3.23,-52.99 -20.35,-83.11 -63.12,-83.92 12.19,-459.14 10.04,-557.13 15.6,-26.81 -273.46,-5.74 -277.49,-12.11 -6.46,0 -11.57,5.56 -11.03,12.01l33.98 428.74c15.24,81.41 -47.25,130.63 -49.4,207.38z"/>
  <path class="fil19" d="M19133.4 14470.19l517.14 0c45.19,-1.88 44.83,-47.88 36.49,-83.65 -28.51,-128.66 21.88,-424.17 31.2,-556.6 2.51,-24.21 -16.59,-45.28 -40.88,-45.28l-228.27 0c-24.75,0 -43.93,21.7 -40.79,46.26l41.51 330.93c22.5,143.81 -149.01,171.24 -246.74,187.12 -64.46,4.66 -172.05,92.52 -69.66,121.22z"/>
  <path class="fil4" d="M19706.76 14416.49c-1.43,25.37 -13.99,54.33 -43.39,53.7l-536.42 0c-126.6,-46.98 63.03,-214.82 310.75,-213.83 176.09,48.32 274.98,-88.94 269.06,160.13z"/>
  <path class="fil4" d="M20531.97 14470.19l-229.25 0c-111.71,-15.33 -31.2,-229.7 114.58,-214.19 146.32,-18.47 226.38,199.13 114.67,214.19z"/>
  <path class="fil38" d="M19089.38 14416.49l617.38 0c-2.33,18.83 -7.53,37.12 -16.94,53.7l-562.87 0c-27.7,0 -47.43,-27.79 -37.57,-53.7z"/>
  <path class="fil38" d="M20531.97 14470.19l-229.25 0c-29.14,0 -52.63,-24.57 -50.84,-53.7l330.93 0c1.79,29.14 -21.61,53.7 -50.84,53.7z"/>
  <path class="fil33" d="M19802.97 9185.86c0,0 -2.69,-167.66 148.83,-197.43l79.44 82.4 -228.27 115.03z"/>
  <path class="fil6" d="M20599.04 14177.55c0,0 -244.59,59.45 -370.55,-4.39 -65.63,-411.26 -247.63,-1556.19 -311.02,-2340.87 -2.42,45.82 -135.65,1890.88 -160.93,2340.87 -87.06,29.05 -261.89,64.2 -359.8,-6.28 -43.93,-473.66 -185.14,-2033.07 27.52,-3306.66 0,0 582.78,64.82 1037.88,-72.71 125.25,404 158.43,2905.26 136.91,3390.04z"/>
  <path class="fil43" d="M20596.35 14084.4c-69.84,15.6 -134.58,21.07 -190.17,21.34 -25.55,-1390.68 -231.41,-2701.92 -262.61,-2706.94 -23.4,17.57 178.69,1313.75 261.71,2707.03 -115.39,0.45 -191.15,-21.43 -191.15,-21.43 9.15,56.93 14.35,88.76 14.35,88.76 125.97,63.84 370.55,4.39 370.55,4.39 -0.81,-4.57 -1.7,-37.65 -2.69,-93.15z"/>
  <path class="fil43" d="M19756.53 14173.16c-2.06,-39.54 160.93,-2340.87 160.93,-2340.87 0,0 -77.01,41.15 -95.31,285.47 -15.87,212.49 -110.82,1624.32 -135.38,1989.41 -76.03,16.95 -144.44,13.81 -196.62,5.29 -58.1,-1354.82 77.91,-2516.96 57.47,-2530.85 -35.86,2.87 -172.77,1175.32 -58.1,2530.76 -62.22,-10.22 -100.95,-27.97 -100.95,-27.97 5.02,53.43 8.16,82.48 8.16,82.48 80.15,57.74 212.04,44.56 304.93,21.97 23.49,-5.47 41.42,-11.3 49.76,-14.07 1.7,-0.54 3.41,-1.08 5.11,-1.61z"/>
  <path class="fil19" d="M19870.66 9771.33c-12.73,-110.91 4.57,-270.86 20.08,-336.66 27.89,-129.82 233.74,-79.62 199.49,47.97 -6.64,-4.12 -27.89,231.14 -13.18,296.41 193.21,58.01 -387.86,248.62 -206.39,-7.71z"/>
  <path class="fil26" d="M20092.29 9471.96c-0.54,3.59 -1.17,7.17 -2.06,10.67 -4.75,-3.14 -18.11,126.68 -18.29,220.92 -88.49,40.26 -187.2,22.5 -205.32,18.83 -1.88,-119.33 9.06,-228.09 26.63,-296.32 35.86,-115.57 217.33,-73.43 199.04,45.9z"/>
  <path class="fil19" d="M20229.56 9423.55c-29.32,88.67 -76.57,186.4 -158.16,235.08l-0.18 0c-33.08,19.54 -70.74,29.05 -109.56,30.48 -217.96,29.41 -432.69,-267.36 -236.52,-415.11 32.28,-23.04 60.61,-56.4 77.83,-88.13 174.83,-337.02 533.28,-72.53 426.59,237.68z"/>
  <path class="fil44" d="M19774.46 9458.6l129.29 -41.87c0.63,73.16 -85.62,108.4 -129.29,41.87z"/>
  <path class="fil20" d="M19492.39 10240.42l-89.75 329.31c-192.22,59.08 -397.18,45.63 -578.02,-65.27 198.77,112.25 471.96,48.95 514.99,-17.03 45.37,-69.84 146.59,-236.88 152.78,-247.01z"/>
  <path class="fil33" d="M20546.95 11337.38c-20.8,25.28 -43.04,50.66 -66.53,76.12 0,0 -114.49,21.61 -204.15,-97.73 365.62,-775.18 -340.34,-847.53 -199.22,-1536.73 471.69,55.68 1127.8,759.67 469.9,1558.34z"/>
  <path class="fil27" d="M19891.01 9311.47c-5.74,-17.12 21.34,-25.82 26.63,-8.52 5.74,17.12 -21.34,25.82 -26.63,8.52z"/>
  <path class="fil27" d="M19778.22 9273.37c-5.74,-17.12 21.34,-25.82 26.63,-8.52 5.83,17.12 -21.34,25.82 -26.63,8.52z"/>
  <path class="fil26" d="M20229.56 9423.55c-29.32,88.67 -76.57,186.4 -158.16,235.08l-0.18 0c-6.72,3.94 -13.72,7.62 -20.89,10.76 63.48,-45.55 113.87,-156.99 113.87,-156.99l3.05 -100.77c-73.97,-103.74 -19.72,-198.32 -19.72,-198.32 -154.48,17.75 -189.62,-81.5 -189.62,-81.5 -47.7,-1.44 -92.98,-32.9 -92.98,-32.9 212.4,-213.03 456.72,91.27 364.64,324.65z"/>
  <path class="fil27" d="M19774.46 9463.89c2.96,-3.32 140.94,-38.55 134.31,-48.77 2.6,-12.91 -133.32,40.26 -135.92,38.37 -5.65,1.71 -4.21,10.58 1.61,10.4z"/>
  <path class="fil27" d="M19811.84 9401.04c9.06,2.87 16.86,-9.86 5.02,-10.94 -18.56,3.5 -59.18,-15.6 -36.76,-24.84 32.1,-10.94 82.21,-84.46 52.9,-71.28 -0.27,0.54 -28.06,51.46 -56.4,61.33 -38.73,19.28 8.43,45.82 35.23,45.73z"/>
  <path class="fil20" d="M20546.95 11337.38c-20.8,25.28 -43.04,50.66 -66.53,76.12 0,0 -116.64,16.32 -206.3,-102.93 13.18,-32.01 27.79,-52.81 39,-84.55 0,0 69.22,77.46 233.83,111.35z"/>
  <path class="fil43" d="M20488.67 11428.83c24.65,7.44 50.66,-21.79 17.12,-30.3 -181.47,7.98 -229.79,-111.8 -231.76,-116.91 -78.72,-44.29 17.93,158.16 214.64,147.22z"/>
  <path class="fil42" d="M19339.53 11407.67c0,0 35.59,152.69 320.43,228 81.59,21.61 128.75,10.94 140.67,-45.63 6.01,-28.42 21.52,-77.82 50.03,-96.11 0,0 63.75,27.52 87.77,66.53 52.81,85.62 132.25,7.8 170.89,-81.77 47.79,-110.82 169,-204.78 195.54,-297.67l-965.34 226.66z"/>
  <path class="fil33" d="M20500.32 11218.94c-9.32,16.41 -14.88,13.81 -24.3,4.3 -255.88,-191.15 -347.51,226.48 -623.3,233.92 -280.63,27.79 -436.81,43.66 -513.2,-49.49 -133.5,-206.84 78.81,-1131.66 250.5,-1355.62 75.22,-116.38 208.63,-220.2 280.45,-280.54 -1.44,6.01 -39.72,165.06 206.57,7.53 12.37,5.29 90.46,81.41 85.53,122.2 12.55,187.2 456.72,1107.36 337.74,1317.7z"/>
  <path class="fil33" d="M19789.61 8946.93c0,0 72.26,-19.82 146.23,9.23 8.52,-28.06 25.82,-53.97 53.88,-74.5 12.11,34.07 29.23,66.88 48.77,97.37 6.64,-64.1 46.17,-116.1 46.17,-116.1 10.58,61.41 95.49,105.62 135.56,172.14l2.15 -3.14c0,0 224.32,80.78 62.67,279.64l0 0c-6.63,73.61 -42.59,148.02 -42.59,148.02 -118.89,-108.57 -93.24,-239.12 -39.27,-273.01 -96.83,34.34 -183.17,-6.36 -231.86,-70.65 -72.08,-12.01 -160.22,-51.19 -181.74,-169z"/>
  <path class="fil20" d="M20352.21 11277.75l-56.13 -11.66c224.32,-504.95 -39.54,-718.52 -179.04,-1003 323.57,374.5 372.53,579.73 235.17,1014.65z"/>
  <path class="fil19" d="M20280.04 9478.87c-37.12,99.7 -162.46,51.37 -123.1,-47.43 37.12,-99.7 162.46,-51.46 123.1,47.43z"/>
  <path class="fil27" d="M20244.53 9495c22.95,-23.94 22.86,-64.2 12.46,-75.4 -19.01,-19.54 -55.14,-17.21 -55.14,-5.92 4.84,11.47 29.32,-7.26 46.8,12.46 18.92,14.79 -18.83,62.76 -4.12,68.86z"/>
  <path class="fil27" d="M20197.01 9479.85c8.07,-0.54 21.16,-37.12 61.15,-34.79 2.87,0.36 5.47,-1.79 5.74,-4.75 -26,-26.36 -90.47,40.08 -66.89,39.54z"/>
  <path class="fil42" d="M20152.81 9792.58c1.35,93.96 -239.65,176.89 -253.37,176.98l-28.87 -85.44c-37.12,9.15 -69.75,61.06 -69.75,61.06 -106.87,-101.85 -6.37,-190.61 69.75,-173.85l-0.09 0.18c-1.44,6.01 -18.29,145.42 205.67,2.69 28.78,-13.27 76.66,18.38 76.66,18.38z"/>
  <path class="fil20" d="M18667.36 10107.28c-0.36,75.04 -102.48,138.34 -102.48,138.34 -11.48,-17.3 -22.86,-35.59 -33.62,-54.15l72.44 -117.54c21.88,12.11 43.03,23.22 63.66,33.35z"/>
  <path class="fil19" d="M18497.28 9862.69c-28.06,18.02 17.93,73.61 14.44,103.73 -46.44,-21.16 -87.24,-55.95 -87.51,-55.86 -39.9,-49.22 -77.02,-100.42 -111.89,-153.31 -85.89,-39.36 50.39,155.11 60.61,179.05l-0.63 0.72c-51.64,-41.69 -101.04,-86.25 -146.32,-134.67 -96.65,-20.17 98.17,157.62 115.93,178.78l-0.18 0.45c-55.14,-30.93 -106.6,-68.68 -153.31,-111.35 -99.07,-11.66 112.61,153.67 136.19,168.47l-0.18 0.81c-41.96,-5.65 -128.3,-83.2 -156.01,-64.38 -26.27,42.5 257.23,195.19 356.57,214.37 35.77,9.77 87.33,-80.07 78.54,-115.39 -8.16,-33.17 -31.02,-73.7 -38.91,-88.58 -12.37,-34.61 -26.18,-120.05 -67.33,-122.83z"/>
  <path class="fil34" d="M18769.12 10466.53c2.96,2.33 5.92,4.57 8.88,7.26 -2.96,-2.33 -5.56,-4.3 -8.52,-6.27l0 -0.27 -0.36 -0.72z"/>
  <path class="fil27" d="M19966.59 9307.89c-2.78,0 -5.2,-1.79 -5.92,-4.57 -0.36,-1.52 -10.58,-38.37 -66.88,-57.56 -3.14,-1.08 -4.84,-4.57 -3.77,-7.71 1.08,-3.14 4.57,-4.84 7.71,-3.77 62.85,21.43 74.24,64.28 74.69,66.08 0.81,3.32 -1.17,6.54 -4.39,7.35l-1.44 0.18z"/>
  <path class="fil27" d="M19784.41 9229.53c-1.7,0 -3.41,-0.72 -4.57,-2.06 -2.15,-2.6 -1.88,-6.46 0.63,-8.61 30.3,-25.64 71.64,-5.11 73.34,-4.21 3.05,1.52 4.21,5.2 2.69,8.16 -1.52,2.96 -5.11,4.21 -8.16,2.69 -0.36,-0.18 -35.95,-17.84 -59.98,2.6 -1.16,0.99 -2.51,1.43 -3.94,1.43z"/>
 </g>
</svg>
