<?xml version="1.0" encoding="UTF-8"?>
<!DOCTYPE svg PUBLIC "-//W3C//DTD SVG 1.1//EN" "http://www.w3.org/Graphics/SVG/1.1/DTD/svg11.dtd">
<!-- Creator: CorelDRAW -->
<svg xmlns="http://www.w3.org/2000/svg" xml:space="preserve" width="32.4323in" height="12.1556in" version="1.1" style="shape-rendering:geometricPrecision; text-rendering:geometricPrecision; image-rendering:optimizeQuality; fill-rule:evenodd; clip-rule:evenodd"
viewBox="0 0 27280.7 10224.76"
 xmlns:xlink="http://www.w3.org/1999/xlink"
 xmlns:xodm="http://www.corel.com/coreldraw/odm/2003">
 <defs>
  <style type="text/css">
   <![CDATA[
    .fil1 {fill:#00A758}
    .fil0 {fill:#1B1D1D}
    .fil5 {fill:#1D1D1D}
    .fil3 {fill:#FDFDFD}
    .fil4 {fill:#FEFEFE}
    .fil2 {fill:white}
   ]]>
  </style>
 </defs>
 <g id="Camada_x0020_1">
  <metadata id="CorelCorpID_0Corel-Layer"/>
  <g id="_2109571876832">
   <path class="fil0" d="M10854.45 7876.08c478.8,-80.79 832.97,324.96 885.41,740.73 62.9,498.84 -303.8,856.71 -736.49,909.57 -479.01,58.53 -845.15,-324.97 -899.14,-738.95 -65.18,-499.67 330.39,-840.5 750.21,-911.35zm4625.96 0.53c478.8,-60.15 820.83,330.34 858.75,763.92 44.45,508.15 -299.53,845.79 -760.62,885.59 -993.82,85.76 -1306.82,-1497.65 -98.12,-1649.51zm-6024.43 479.03c-386.24,8.71 -872.39,60.11 -1245.48,31.63 -222.89,-17.03 -324.89,-81.61 -343.95,-304.41 -16.39,-191.57 -0.61,-417.73 38.47,-598.61 154.56,-715.3 777.55,-905.52 1559.5,-1005.87 865.92,-111.11 372.56,-122.03 958.98,-977.54 95.9,-139.89 183.11,-237.6 287.97,-349.43 362.72,-386.86 958.47,-732.77 1685.68,-876.92 953.53,-189.02 1854.44,-15.59 2626.46,460.64 77.72,47.94 119.3,80.98 192.21,132.99 918.59,655.31 726.52,1468.18 1290.22,1584.45 368.25,75.95 703.14,102.4 1047.54,227.75 709.88,258.39 974.58,773.26 725.48,1671.54l-1232.59 2.34c-83.55,-41.95 -172.09,-341.6 -235.79,-442.84 -172.99,-274.99 -416.19,-485.35 -730.38,-612 -817.87,-329.68 -1706.07,97.24 -1999.06,950.51 -36.98,107.71 -17.94,100.06 -58.93,109.43l-1600.23 -2.07c-40.63,-10.22 -57.17,-128.33 -104.8,-237.66 -232.33,-533.24 -763.04,-931.13 -1386.55,-940.43 -445.18,-6.66 -715.26,166.42 -961.22,362.98 -160.11,127.95 -438.47,518.96 -513.54,813.53zm23.32 -2551.44c-207.12,0 -330.8,20.24 -500.79,55.21 -139.98,28.8 -308.67,76.45 -436.76,119.26 -990.24,331.01 -1367.85,958.44 -1367.85,1968.19 0,244.02 18.15,525.25 126.41,727.95 232.12,434.53 912.32,384.07 1406,384.07 264.73,0 481.91,-13.57 745.87,-13.57l86.99 238.48c35.62,85.31 74.69,146.09 118.93,220.09 86.41,144.54 120.31,165.22 212.2,276.03 88.53,106.77 355.37,273.49 505.77,335.02 636.24,260.25 1349.37,43.29 1751.69,-496.02 94.26,-126.36 254.3,-418.53 267.22,-573.59l1654.46 0c75.86,325.6 339.69,724.4 620.92,911.49 373.7,248.63 776.75,322.47 1223.6,214.28 253.12,-61.28 454.99,-172.55 634.17,-328.67 109.33,-95.25 187.4,-187.7 265.07,-318.07 86.21,-144.72 62.98,-111 121.41,-258.29 34.25,-86.3 87.26,-199.83 175.23,-218.06 358.02,-74.21 1614.97,259.03 1884.23,-488.97 169.83,-471.72 51.58,-1276.96 -132.8,-1661.08 -351.32,-731.92 -1063.7,-929.91 -1809.48,-1079.06 -153.03,-30.61 -300.29,-33.81 -352.2,-136 -18.04,-35.49 -35.43,-73.07 -53.51,-109.22 -37.54,-75.1 -68.55,-139 -112.76,-212.71 -312.56,-521.26 -489.39,-697.47 -893.9,-1031.8 -559.71,-462.59 -1549.55,-803.25 -2424.33,-803.25 -914.23,0 -1688.87,190.6 -2411.36,680.6 -214.31,145.35 -400.61,318.47 -582.54,502.35l-169.01 197.16c-52.25,63.59 -103.79,131.89 -151.57,201.02 -185.34,268.18 -251.42,413.93 -401.3,697.16z"/>
   <path class="fil1" d="M9455.97 8355.64c75.07,-294.57 353.44,-685.58 513.54,-813.53 245.96,-196.56 516.04,-369.65 961.22,-362.98 623.5,9.31 1154.22,407.19 1386.55,940.43 47.63,109.33 64.17,227.44 104.8,237.66l1600.23 2.07c40.99,-9.37 21.95,-1.72 58.93,-109.43 292.99,-853.27 1181.19,-1280.19 1999.06,-950.51 314.19,126.65 557.4,337.02 730.38,612 63.7,101.24 152.24,400.89 235.79,442.84l1232.59 -2.34c249.1,-898.28 -15.6,-1413.15 -725.48,-1671.54 -344.4,-125.35 -679.29,-151.8 -1047.54,-227.75 -563.69,-116.27 -371.63,-929.14 -1290.22,-1584.45 -72.91,-52.01 -114.49,-85.05 -192.21,-132.99 -772.03,-476.22 -1672.93,-649.66 -2626.46,-460.64 -727.21,144.15 -1322.96,490.06 -1685.68,876.92 -104.86,111.83 -192.08,209.54 -287.97,349.43 -586.42,855.51 -93.06,866.44 -958.98,977.54 -781.95,100.35 -1404.93,290.57 -1559.5,1005.87 -39.08,180.88 -54.86,407.04 -38.47,598.61 19.06,222.8 121.06,287.38 343.95,304.41 373.09,28.48 859.24,-22.92 1245.48,-31.63z"/>
   <path class="fil2" d="M3553.05 8123.17c0,-307.93 166.85,-584.16 425.81,-632.04 771.87,-142.67 742.99,945.13 165.38,1060.51 -156.36,31.23 -315.89,2.55 -417.33,-73.47 -109.36,-81.96 -173.86,-213.22 -173.86,-355zm1817.2 -433.97l4.05 4.05c-0.27,-0.27 -5.39,-2.69 -4.05,-4.05zm-13.57 -108.49c0,-34.69 21.48,-2.18 8.07,0 -0.16,0.03 -8.07,37.87 -8.07,0zm-1627.34 -406.84c8.14,-97.71 40.68,-194.22 40.68,-298.34l-745.86 0c-1.33,59.44 -20.52,135.13 -31.12,199.43 -9.53,57.92 -19.32,130.94 -30.9,199.64l-319.7 2012.82c-24.11,144.14 -120.05,713.6 -120.05,815.68l772.99 0c52.89,-227.01 176.3,-1110.43 176.3,-1288.31 293.39,337.55 614,456.11 1055.1,336.36 234.94,-63.78 425.96,-213.33 574.27,-402.14 230.39,-293.31 282.76,-620.99 282.76,-1005.56 45.27,52.09 41.46,204.8 415.69,384.43 93.46,44.85 506.47,184.84 506.47,307.19 0,57.65 9,114.41 -67.45,163.1 -192.08,122.31 -538,-35.21 -701.36,-126.6 -50.13,-28.05 -99.98,-64.76 -153.35,-77.19l-262.66 539.95c134.8,39.56 404.54,273.72 940.72,273.72 369.89,0 697.74,-113.98 891.55,-383.21 112.67,-156.47 111.99,-284.75 111.99,-457.58 0,-485.51 -673.8,-610.99 -879.33,-748.03 -222.38,-148.27 48.58,-396.99 481.62,-196.83 90.74,41.93 140.9,88.59 221.41,131.2l162.88 -366.01c17.26,-34.61 44.59,-94.95 54.11,-135.76 -44.75,-61.07 -239.25,-141.07 -330.24,-171.53 -615.94,-206.25 -1405.6,39.47 -1405.6,659.73 -51.19,-37.51 -7.35,-2.4 -56.13,-133.73 -56.49,-152.08 -113.45,-246.12 -231.99,-364.69 -334.11,-334.18 -854.17,-289.7 -1205.76,-5.48 -54.54,44.09 -90,99.56 -147.04,137.75z"/>
   <path class="fil2" d="M22172.61 8733.42zm-339.02 -1383.25l339.02 1383.25zm-339.02 -1383.25l67.8 0c529.13,0 556.79,758.21 170.54,1011.33 -88.88,58.22 -195.16,90.47 -309.88,78.2 -246.38,-26.33 -394.06,-134.42 -429.97,-384.96 -48.1,-335.77 166.6,-704.57 501.52,-704.57zm339.02 1383.25c0,376.1 -222.37,271.51 611.05,285.59 78.34,1.31 90.53,15.36 108.5,-40.68 15.15,-47.22 27.4,-183.83 35.89,-235.33l302.84 -1896.47c14.16,-94.26 30.53,-79.81 -176.8,-79.49 -185.34,0.29 -370.69,0 -556.02,0 -22.5,46.92 -54.23,250.91 -54.23,325.47l-138.98 -145.81c-346.64,-349.87 -905.69,-298.27 -1290.98,-9.39 -63.32,47.47 -99.85,103.57 -156.7,141.64l48.34 -266.35c2.66,-43.6 2.93,-41.29 -46.5,-46.48 -111.27,-11.71 -314.34,0.91 -435.81,0.91 0,-116.96 65.57,-397.88 113.69,-469.45 114.6,-170.5 373.1,-51.59 455.88,-32.31 0,-133.73 81.8,-479.52 94.93,-637.39 -168.45,-89.12 -378.16,-103.87 -569.6,-95.13 -202.17,9.23 -391.65,98.15 -511.28,194.07 -234.27,187.83 -271.8,436.96 -321.56,736.21 -15.18,91.23 -46.58,213.3 -48.61,303.99 -85.87,0 -172.33,0.99 -258.13,-0.46 -159.52,-2.71 -106.56,-33.22 -170.02,345.3 -13.61,81.21 -32.91,155.35 -32.91,238.3l366.15 0 -65.54 409.1c-22.68,163.44 -192.12,1166.77 -192.12,1258.93l772.99 0c36.44,-75.95 56.97,-288.68 75.57,-399.08 24.84,-147.42 41,-274.92 65.85,-422.36l100.43 -631.88c10.06,-72.48 29.37,-145.8 29.37,-214.71l352.6 0c-113.68,214.84 -173.88,491.65 -150.08,800.99 7.94,103.15 9.16,132.94 26.57,217.56 12.75,62 35.03,130.67 60.05,184.05 302.56,645.45 997.18,701.81 1489.25,250.3 38.76,-35.57 17.89,-37.48 65.94,-69.66z"/>
   <path class="fil2" d="M935.72 8096.03c0,-329.63 215.06,-637.37 474.63,-637.37l122.05 0c346.09,0 475.36,357.63 391.08,662.31 -26.91,97.29 -72.64,175.55 -131.26,248.44 -267.29,332.42 -856.5,202.62 -856.5,-273.38zm-800.12 0c0,1036.23 878.32,1216.35 1331.91,952.19 111.19,-64.74 145.9,-88.88 234.85,-171.99 31.31,-29.26 41.12,-52.87 74.16,-75.01 -13.17,158.3 -54.16,366.79 -131.12,506.26 -162.51,294.4 -589.78,286.66 -727.18,162.17 -46.39,-42.03 -84.6,-117.08 -90.99,-193.79l-827.22 0c5.35,240.32 174.47,484.41 356.25,620.15 461.7,344.79 1721.95,306.94 2028.79,-445.58 150.58,-369.26 226.18,-1104.93 296.24,-1520.96l166.58 -1053.93 -745.87 0c-3.49,41.9 -42.38,273.62 -54.25,298.34 -49,-32.81 -129.59,-152.36 -292.15,-250.28 -587.19,-353.76 -1619.98,102.72 -1619.98,1172.44z"/>
   <path class="fil1" d="M9818.33 1654.46c0,199.94 159.31,311.92 311.9,311.92 260.46,0 476.69,-312.42 637.1,-434.24 178.98,-135.92 538.79,-361 763.64,-456.89 35.97,-15.35 59.63,-29.39 90.82,-44.8 400.53,-197.91 1078.89,-365.95 1532.61,-365.95 517.26,0 743.32,3.49 1250.57,146.22 295.98,83.29 534.56,176.77 783.61,301.3 244.39,122.18 298.49,161.64 507.36,306.31 54.79,37.96 97.88,77.64 151.47,119.75l144.75 126.47c31.55,32.07 35.59,35.14 72.17,63.44 33.06,25.56 41.41,39.61 70.27,65.35 458.99,409.22 681.34,18.72 681.34,-125.32 0,-212.61 -80.44,-303.14 -248.11,-443.52 -381.98,-319.83 -681.24,-529.64 -1121.59,-749.88 -629.52,-314.87 -1329.78,-466.87 -2034.26,-474.64l-113.61 0c-727.03,7.93 -1454.78,168.37 -2110.17,461.26 -292.33,130.64 -564.22,282.21 -810.15,464.6 -175.37,130.06 -559.72,453.05 -559.72,728.6z"/>
   <path class="fil1" d="M10848.99 2739.35c209.5,0 380.52,-267.63 659.03,-452.98 442.72,-294.64 916.68,-490.45 1454.12,-566.5 122.99,-17.41 292.63,-25.79 425.22,-36.74l413.98 29.57c360.31,47.31 733.2,152.45 1048.41,307.72 48.19,23.72 93.8,45.15 144.52,72.46 128.22,69.02 301.2,180.82 407.16,270.9 133.76,113.72 381.77,375.57 533.02,375.57l54.25 0c124.1,0 437.03,-276.12 19.35,-602.47 -159.1,-124.31 -293.08,-239.86 -469.54,-357.69 -414.56,-276.86 -872.03,-454.33 -1370.32,-555.38 -623.18,-126.38 -1326.02,-63.99 -1943.94,110.76 -220.03,62.23 -392.89,136.7 -588.94,224.74l-189.45 95.33c-268.19,138.85 -783.14,470.1 -845.88,796.18 -12.88,66.97 8.8,150.56 55.47,197.3 32.87,32.9 135.81,91.23 193.55,91.23z"/>
   <path class="fil2" d="M23121.9 7933.3c0,225.79 3.88,342.64 86.86,550.53 146.13,366.07 526.97,615.75 943.8,615.75 332.11,0 383.56,-52.52 623.8,-108.5 1.2,-53.51 111.58,-710.46 122.05,-732.31 -51,11.89 -534.94,378.53 -846.31,32.66l-62.5 -100.24c-193.38,-436.05 234.72,-1095.48 786.4,-772.83 31.94,18.68 83.07,51.5 112.28,77.57 39.82,35.57 62,69.5 105.07,98.35 13.95,-29.09 108.5,-625.86 108.5,-691.62 -405.65,-271.63 -919.61,-274.97 -1342.76,-54.43 -386.56,201.46 -637.2,621.8 -637.2,1085.07z"/>
   <path class="fil2" d="M25942.65 9018.21l759.42 0c54.73,0 53.34,-116.92 68.54,-229.81 11.61,-86.14 27.13,-167.78 41.95,-256.39l416.5 -2607.66c14.46,-86.89 25.88,-176.29 41.44,-258.52 20.16,-106.59 31.03,-92.5 -175.13,-92.18 -203.4,0.32 -406.85,0.01 -610.25,0.01l-275.08 1718.42c-11.9,71.23 -267.38,1629.08 -267.38,1726.12z"/>
   <path class="fil3" d="M15366.38 8396.07c17.6,-14.96 -0.77,-6.62 28.72,-16.93 19.59,-6.84 15.27,-5.12 36.55,-7.01 17.52,-1.55 63.84,1.31 82.81,2.87 187.54,15.34 286.13,45.05 310.57,181.6 37.23,207.98 -6.49,388.87 -155.14,454.6 -351.88,155.59 -686.4,-289.77 -303.51,-615.12zm114.03 -519.45c-1208.7,151.86 -895.7,1735.27 98.12,1649.51 461.09,-39.8 805.07,-377.44 760.62,-885.59 -37.91,-433.58 -379.94,-824.07 -858.75,-763.92z"/>
   <path class="fil2" d="M24979.79 9018.21l718.75 0c61.49,0 72.34,-227.52 88.98,-331.43 20.73,-129.41 39.37,-249.61 60.24,-373.72l205.26 -1300.04c52.34,-310.89 106,-245.99 -327.36,-245.99 -144.65,0 -289.3,0 -433.95,0 -7.29,87.5 -29.55,189.08 -44.67,280.8 -14.26,86.51 -29.73,184.5 -44.54,280.94l-180.03 1148.94c-16.43,97.16 -28.56,184.56 -44.65,280.81 -6.58,39.35 -14.87,105.63 -21.4,141.83 -10.63,58.77 -38.76,117.84 23.39,117.84z"/>
   <path class="fil4" d="M10895.42 8378.37c191.18,-42.54 337.19,118.31 363.28,284.63 31.49,200.76 -107.57,353.74 -287.09,373.84 -395.85,44.34 -621.63,-537.09 -76.19,-658.47zm-40.97 -502.28c-419.83,70.85 -815.39,411.67 -750.21,911.35 53.99,413.98 420.13,797.48 899.14,738.95 432.69,-52.86 799.38,-410.73 736.49,-909.57 -52.44,-415.77 -406.61,-821.52 -885.41,-740.73z"/>
   <path class="fil1" d="M11608.41 3119.07c0,78.41 83.08,149.17 162.74,149.17 133.68,0 237.33,-184.38 480.35,-333.32 61.3,-37.54 117.23,-71.6 179.63,-105.15l188.43 -82.81c678.78,-271.64 1432.34,-154.44 1997.7,292.49 57.44,45.41 86.48,80.21 145.15,126.08 93.81,73.36 85.88,102.7 209.2,102.7 95.94,0 268.22,-172.57 31.3,-370.33 -33.92,-28.3 -41.28,-39.72 -79.62,-69.53 -33.64,-26.16 -58.59,-46.14 -90.35,-72.4 -336.68,-278.28 -891,-491.26 -1353.07,-491.26 -457.39,0 -837.46,61.52 -1207.15,243.91 -194.24,95.81 -664.3,357.04 -664.3,610.45z"/>
   <path class="fil2" d="M26200.32 6156.79l0 -67.8c0,-520.4 -836.93,-533.79 -851.96,14.74 -3.35,122.53 51.55,233.82 115.88,300.93 298.66,311.57 736.07,40.23 736.07,-247.87z"/>
   <path class="fil5" d="M10895.42 8378.37c-545.43,121.38 -319.66,702.8 76.19,658.47 179.52,-20.1 318.58,-173.08 287.09,-373.84 -26.09,-166.32 -172.1,-327.17 -363.28,-284.63z"/>
   <path class="fil5" d="M15366.38 8396.07c-382.89,325.36 -48.37,770.72 303.51,615.12 148.65,-65.74 192.37,-246.62 155.14,-454.6 -24.44,-136.55 -123.03,-166.26 -310.57,-181.6 -18.97,-1.55 -65.29,-4.42 -82.81,-2.87 -21.29,1.89 -16.96,0.18 -36.55,7.01 -29.49,10.32 -11.11,1.97 -28.72,16.93z"/>
  </g>
 </g>
</svg>
